<svg width="530" height="271" viewBox="0 0 530 271" fill="none" xmlns="http://www.w3.org/2000/svg">
<path d="M487.027 252.883V243.873H476.445V234.859H465.864V225.849V216.839H455.282V207.824V198.815V189.805V180.79V171.781V162.771V153.756H444.701V162.771H434.12V171.781H423.538H412.956H402.375H391.793H381.212H370.631V162.771H360.049V153.756H349.467V144.742H338.886V153.756H328.304V162.771V171.781H317.723V180.79H307.141V189.805H296.56V198.815H285.978H275.397V207.824H264.815H254.234H243.652H233.071H222.489H211.908H201.327H190.745V198.815H180.163H169.582V189.805H159V180.79H148.419V171.781H137.837H127.256V180.79H116.674V189.805H106.093H95.511H84.929H74.348H63.776H53.1949V180.79H42.613V171.781H32.032V162.771V153.756H21.45V144.742V135.737V126.722V117.707H10.869V126.722V135.737V144.742H0.286987V153.756V162.771V171.781V180.79V189.805V198.815H10.869V207.824V216.839V225.849H21.45V234.859V243.873H32.032V252.883H42.613V261.893H53.1949H63.776V270.907H74.348H84.929H95.511H106.093H116.674H127.256H137.837H148.419H159H169.582H180.163H190.745H201.327H211.908H222.489H233.071H243.652H254.234H264.815H275.397H285.978H296.56H307.141H317.723H328.304H338.886H349.467H360.049H370.631H381.212H391.793H402.375H412.956H423.538H434.12H444.701H455.282H465.864H476.445H487.027V261.893H497.609V252.883H487.027Z" fill="#B2E2F1"/>
<path d="M518.762 171.781V162.771V153.756H508.19V144.742H497.609V135.737H487.027V126.722H476.445H465.864H455.282V117.707V108.703V99.688H444.701V90.673V81.664V72.654H434.12V63.639H423.538V54.63H412.956V45.62H402.375V36.605H391.793H381.212H370.631H360.049H349.467H338.886H328.304H317.723V45.62H307.141V36.605V27.595H296.56V18.586H285.978H275.397V9.57101H264.815V0.562012H254.234H243.652H233.071H222.489H211.908H201.327V9.57101H190.745H180.163V18.586H169.582V27.595H159V36.605H148.419V45.62H137.837V54.63V63.639V72.654H127.256H116.674H106.093H95.511H84.929H74.348H63.776V81.664H53.1949H42.613V90.673H32.032V99.688H21.45V108.703V117.707V126.722V135.737V144.742V153.756H32.032V162.771V171.781H42.613V180.79H53.1949V189.805H63.776H74.348H84.929H95.511H106.093H116.674V180.79H127.256V171.781H137.837H148.419V180.79H159V189.805H169.582V198.815H180.163H190.745V207.824H201.327H211.908H222.489H233.071H243.652H254.234H264.815H275.397V198.815H285.978H296.56V189.805H307.141V180.79H317.723V171.781H328.304V162.771V153.756H338.886V144.742H349.467V153.756H360.049V162.771H370.631V171.781H381.212H391.793H402.375H412.956H423.538H434.12V162.771H444.701V153.756H455.282V162.771V171.781V180.79V189.805V198.815V207.824V216.839H465.864V225.849V234.859H476.445V243.873H487.027V252.883H497.609V261.893H508.19V252.883V243.873H518.762V234.859H529.343V225.849V216.839V207.824V198.815V189.805V180.79V171.781H518.762Z" fill="white"/>
</svg>
