<svg xmlns="http://www.w3.org/2000/svg" xml:space="preserve" viewBox="0 0 512 512"><path d="M478.609 166.957v-66.783h-33.392V66.783h-33.391V33.391h-66.783V0H166.957v33.391h-66.783v33.392H66.783v33.391H33.391v66.783H0v178.086h33.391v66.783h33.392v33.391h33.391v33.392h66.783V512h178.086v-33.391h66.783v-33.392h33.391v-33.391h33.392v-66.783H512V166.957z" style="fill:#ffde46"/><path d="M166.957 322.783h33.391v33.391h-33.391zM311.652 267.13h33.391v89.043h-33.391zM166.957 155.826h33.391v77.913h-33.391zM200.348 233.739h111.304v33.391H200.348zM267.13 122.435V77.913h-33.391v44.522h-33.391v33.391h111.304v-33.391zM311.652 155.826h33.391v33.391h-33.391zM200.348 356.174v33.391h33.391v44.522h33.391v-44.522h44.522v-33.391zM66.783 66.783h33.391v33.391H66.783z"/><path d="M411.826 33.391h-66.783V0H166.957v33.391h-66.783v33.392h66.783V33.391h178.086v33.392h66.783v33.391h33.391V66.783h-33.391zM445.217 100.174h33.391v66.783h-33.391zM478.609 166.957H512v178.087h-33.391zM445.217 345.043h33.391v66.783h-33.391zM33.391 166.957H0v178.086h33.391v66.783h33.392v33.391h33.391v-33.391H66.783v-66.783H33.391V166.957h33.392v-66.783H33.391z"/><path d="M166.957 478.609V512h178.086v-33.391h66.783v-33.392h-66.783v33.392H166.957v-33.392h-66.783v33.392zM411.826 411.826h33.391v33.391h-33.391z"/></svg>