<svg width="2391" height="570" viewBox="0 0 2391 570" fill="none" xmlns="http://www.w3.org/2000/svg">
<path d="M2390.77 0.427979H1699.44V264.521H2390.77V0.427979Z" fill="#98C261"/>
<path d="M2390.77 45.6121H2338.53V99.787H2233.57V137.03H2081.21V231.838H2013.48V99.787H1925.46V147.19H1810.34V214.911H1699.44V264.52H2390.77V45.6121Z" fill="#7EA351"/>
<path d="M2390.77 264.52H1699.44V569.236H2390.77V264.52Z" fill="#764B30"/>
<path d="M2390.77 499.325V353.728H2375.78V404.517H2291.14V346.958H2213.26V299.553H2182.79V336.802H2155.7V390.976H2098.14V336.802H2023.65V404.517H1966.09V316.485H1857.74V353.728H1766.32V414.678H1699.44V475.623H1779.86V569.237H1823.88V445.151H1888.21V506.096H1935.61V465.463H2040.58V519.637H2091.37V468.848H2189.56V529.798H2264.05V485.784H2328.38V499.325H2390.77Z" fill="#8D573A"/>
<path d="M2225.96 394.869H2181.1V438.883H2225.96V394.869Z" fill="#764B30"/>
<path d="M2326.68 429.293H2281.82V473.307H2326.68V429.293Z" fill="#764B30"/>
<path d="M2136.23 438.883H2091.37V482.902H2136.23V438.883Z" fill="#764B30"/>
<path d="M1980.47 442.061H1935.61V486.075H1980.47V442.061Z" fill="#764B30"/>
<path d="M1901.47 350.855H1856.61V394.869H1901.47V350.855Z" fill="#764B30"/>
<path d="M1784.1 413.493H1739.23V457.507H1784.1V413.493Z" fill="#764B30"/>
<path d="M2220.03 223.887H2165.85V267.906H2220.03V223.887Z" fill="#764B30"/>
<path d="M1959.31 242.511H1905.14V286.525H1959.31V242.511Z" fill="#764B30"/>
<path d="M2165.85 245.896H2111.68V289.91H2165.85V245.896Z" fill="#7EA351"/>
<path d="M2326.68 243.686H2272.51V287.704H2326.68V243.686Z" fill="#7EA351"/>
<path d="M2052.43 255.206H1998.25V299.225H2052.43V255.206Z" fill="#7EA351"/>
<path d="M1840.81 242.511H1786.63V286.525H1840.81V242.511Z" fill="#7EA351"/>
<path d="M1741.96 0.427979H0V264.521H1741.96V0.427979Z" fill="#98C261"/>
<path d="M1692.12 69.314V109.947H1658.26V150.576H1580.39V184.433H1505.89V126.874H1472.04V109.947H1404.32V89.626H1343.37V140.415H1312.9V214.911H1279.04V140.415H1224.86V72.699H1187.62V167.507H1065.72V76.084H953.99V143.805H893.045V177.663H815.173V133.645H788.081V153.961H710.209V45.6121H639.098V99.787H534.134V137.03H381.776V231.838H314.05V99.787H226.023V147.19H110.903V214.911H0V264.52H1741.96V69.314H1692.12Z" fill="#7EA351"/>
<path d="M1741.96 264.52H0V569.236H1741.96V264.52Z" fill="#764B30"/>
<path d="M1685.35 421.449H1741.96V390.976H1705.66V296.168H1610.86V350.343H1505.89V264.52H1468.65V336.802H1421.25V363.889H1360.3V336.802H1268.88V377.435H1180.84V264.52H1163.92V330.031H1058.95V401.132H930.292V346.958H845.641V316.485H818.558V421.449H723.75V353.728H676.346V404.517H591.694V346.958H513.822V299.553H483.354V336.802H456.262V390.976H398.702V336.802H324.216V404.517H266.646V316.485H158.297V353.728H66.884V414.678H0V475.623H80.426V569.237H124.444V445.151H188.775V506.096H236.178V465.463H341.143V519.637H391.932V468.848H490.125V529.798H564.612V485.784H628.942V499.325H723.75V465.463H889.659V445.151H1096.2V519.637H1126.67V479.009H1292.58V569.237H1356.92V421.449H1424.64V492.555H1475.42V441.765H1593.93V543.344H1675.2V499.325H1685.35V421.449Z" fill="#8D573A"/>
<path d="M1677.82 322.071H1694.56V321.293C1688.98 321.461 1683.4 321.723 1677.82 322.071Z" fill="#996F58"/>
<path d="M1577 223.887H1522.83V267.906H1577V223.887Z" fill="#764B30"/>
<path d="M1038.64 223.887H984.467V267.906H1038.64V223.887Z" fill="#764B30"/>
<path d="M754.218 223.887H700.043V267.906H754.218V223.887Z" fill="#764B30"/>
<path d="M526.522 394.869H481.652V438.883H526.522V394.869Z" fill="#764B30"/>
<path d="M627.249 429.293H582.389V473.307H627.249V429.293Z" fill="#764B30"/>
<path d="M900.947 368.343H856.087V412.362H900.947V368.343Z" fill="#764B30"/>
<path d="M856.648 433.244H811.788V477.263H856.648V433.244Z" fill="#764B30"/>
<path d="M1024.25 382.455H979.389V426.473H1024.25V382.455Z" fill="#764B30"/>
<path d="M1159.68 394.869H1114.82V438.883H1159.68V394.869Z" fill="#764B30"/>
<path d="M1235.87 416.878H1191.01V460.897H1235.87V416.878Z" fill="#764B30"/>
<path d="M1341.68 360.445H1296.81V404.459H1341.68V360.445Z" fill="#764B30"/>
<path d="M1458.07 375.684H1413.2V419.698H1458.07V375.684Z" fill="#764B30"/>
<path d="M1638.65 360.445H1593.78V404.459H1638.65V360.445Z" fill="#764B30"/>
<path d="M1673.08 438.883H1628.21V482.902H1673.08V438.883Z" fill="#764B30"/>
<path d="M1567.69 416.878H1522.83V460.897H1567.69V416.878Z" fill="#764B30"/>
<path d="M1373.5 488.546H1328.64V532.56H1373.5V488.546Z" fill="#764B30"/>
<path d="M436.792 438.883H391.932V482.902H436.792V438.883Z" fill="#764B30"/>
<path d="M281.038 442.061H236.178V486.075H281.038V442.061Z" fill="#764B30"/>
<path d="M202.035 350.855H157.175V394.869H202.035V350.855Z" fill="#764B30"/>
<path d="M84.662 413.493H39.792V457.507H84.662V413.493Z" fill="#764B30"/>
<path d="M520.593 223.887H466.418V267.906H520.593V223.887Z" fill="#764B30"/>
<path d="M1201.17 243.686H1146.99V287.704H1201.17V243.686Z" fill="#764B30"/>
<path d="M1378.15 242.511H1323.97V286.525H1378.15V242.511Z" fill="#764B30"/>
<path d="M259.876 242.511H205.701V286.525H259.876V242.511Z" fill="#764B30"/>
<path d="M466.418 245.896H412.244V289.91H466.418V245.896Z" fill="#7EA351"/>
<path d="M627.25 243.686H573.075V287.704H627.25V243.686Z" fill="#7EA351"/>
<path d="M838.87 255.206H784.696V299.225H838.87V255.206Z" fill="#7EA351"/>
<path d="M948.911 243.686H894.737V287.704H948.911V243.686Z" fill="#7EA351"/>
<path d="M1146.99 255.206H1092.82V299.225H1146.99V255.206Z" fill="#7EA351"/>
<path d="M1296.82 255.206H1242.64V299.225H1296.82V255.206Z" fill="#7EA351"/>
<path d="M1462.72 255.206H1408.55V299.225H1462.72V255.206Z" fill="#7EA351"/>
<path d="M1662.5 228.965H1608.32V272.984H1662.5V228.965Z" fill="#7EA351"/>
<path d="M352.991 255.206H298.817V299.225H352.991V255.206Z" fill="#7EA351"/>
<path d="M141.37 242.511H87.196V286.525H141.37V242.511Z" fill="#7EA351"/>
</svg>
