<svg width="669" height="814" viewBox="0 0 669 814" fill="none" xmlns="http://www.w3.org/2000/svg">
<path d="M573.075 800.768L569.494 805.441L574.491 809.271L578.072 804.598L573.075 800.768Z" fill="#F2A317"/>
<path d="M585.226 795.233L590.229 799.068L593.808 794.387L588.807 790.566L585.226 795.233Z" fill="#F2A317"/>
<path d="M520.944 671.858L525.942 675.693L529.516 671.011L524.521 667.196L520.944 671.858Z" fill="#FAF1CE"/>
<path d="M655.358 745.169L650.348 741.329L645.344 737.494L640.332 733.654L636.748 738.326L633.167 743.007L629.593 747.679L626.014 752.341L622.433 757.023L618.857 761.694L615.28 766.366L611.702 771.033L608.12 775.704L604.54 780.376L600.965 785.043L595.965 781.218L592.391 785.885L588.807 790.566L593.808 794.387L590.229 799.068L585.226 795.233L588.807 790.566L583.807 786.736L580.228 791.412L575.218 787.568L571.639 792.23L566.653 788.429L563.077 793.091L559.498 797.758L554.485 793.923L549.485 790.092L545.911 794.754L540.896 790.914L537.315 795.596L532.311 791.76L527.311 787.925L523.732 792.617L528.73 796.432L533.733 800.267L538.746 804.107L543.742 807.937L547.323 803.266L552.341 807.106L557.327 810.922L560.903 806.245L565.923 810.085L569.497 805.418L573.081 800.746L578.076 804.576L574.495 809.248L579.493 813.083L583.077 808.402L586.653 803.73L591.666 807.58L595.24 802.908L600.24 806.734L603.819 802.062L607.405 797.39L612.415 801.23L615.992 796.558L619.57 791.891L624.551 795.712L628.135 791.031L631.719 786.354L635.293 781.687L638.866 777.02L642.445 772.348L646.031 767.672L649.608 763.005L653.182 758.338L656.763 753.657L660.344 748.99L655.358 745.169Z" fill="#F2A317"/>
<path d="M537.399 795.48L537.315 795.596L527.311 787.925L523.732 792.617L543.742 807.937L547.323 803.266L557.327 810.922L557.411 810.805L537.399 795.48Z" fill="black"/>
<path d="M641.04 711.973L637.457 716.648L642.45 720.476L646.034 715.801L641.04 711.973Z" fill="white"/>
<path d="M630.333 726.003L633.914 721.336L637.488 716.66L641.069 711.988L636.046 708.144L639.625 703.482L634.643 699.656L638.226 694.989L633.208 691.135L636.782 686.468L631.784 682.647L635.363 677.976L630.35 674.136L633.929 669.459L628.931 665.639L623.925 661.804L627.506 657.128L622.496 653.288L617.498 649.458L612.5 645.632L607.48 641.788L602.484 637.952L597.489 634.132L592.486 630.301L587.471 626.461L583.892 631.133L578.897 627.307L573.891 623.477L570.314 628.144L565.304 624.304L561.721 628.98L556.72 625.15L553.146 629.812L548.148 625.981L544.564 630.663L539.566 626.842L535.99 631.504L532.409 636.176L527.399 632.336L523.821 637.003L520.247 641.67L515.249 637.835L511.663 642.516L508.082 647.188L504.508 651.86L500.934 656.532L497.353 661.204L493.77 665.885L490.194 670.547L486.621 675.214L483.037 679.895L479.459 684.566L484.457 688.397L480.883 693.063L477.306 697.73L482.319 701.57L478.738 706.247L475.157 710.918L480.158 714.753L476.579 719.42L481.58 723.246L478.006 727.917L483.004 731.743L479.421 736.424L484.438 740.264L480.864 744.931L485.862 748.761L490.858 752.587L487.28 757.263L492.293 761.108L497.289 764.933L502.292 768.759L507.293 772.594L512.303 776.434L517.301 780.269L522.304 784.1L527.315 787.925L530.903 783.263L535.899 787.089L540.899 790.914L544.473 786.252L549.488 790.092L553.069 785.42L558.07 789.236L561.644 784.574L566.657 788.428L570.231 783.747L575.222 787.568L578.798 782.896L583.811 786.736L587.397 782.055L590.973 777.383L595.968 781.218L599.547 776.551L603.128 771.87L606.704 767.198L610.283 762.536L613.857 757.869L617.44 753.192L621.021 748.516L624.595 743.844L628.174 739.177L631.755 734.5L635.334 729.833L630.333 726.003ZM531.678 657.847L535.261 653.176L538.835 648.499L543.836 652.33L547.41 647.668L552.423 651.507L556.006 646.826L561.007 650.661L564.581 645.995L569.579 649.825L573.158 645.144L578.173 648.993L583.173 652.814L588.169 656.649L593.17 660.475L598.185 664.315L603.186 668.15L608.181 671.971L613.199 675.815L609.618 680.487L614.618 684.322L611.044 688.989L616.04 692.819L612.459 697.491L617.472 701.331L613.896 705.998L618.899 709.833L615.325 714.495L611.742 719.176L616.757 723.016L613.174 727.688L609.595 732.355L606.021 737.027L602.44 741.703L598.863 746.37L595.285 751.047L591.711 755.714L588.127 760.396L583.114 756.551L579.533 761.227L575.959 765.894L570.958 762.059L567.377 766.726L562.369 762.891L558.785 767.562L553.785 763.737L550.201 768.418L545.205 764.583L541.629 769.25L536.619 765.41L531.616 761.575L526.615 757.754L521.602 753.9L516.604 750.079L511.603 746.249L506.602 742.414L501.592 738.579L505.166 733.917L500.165 730.082L503.744 725.405L498.748 721.584L502.331 716.898L497.316 713.063L500.89 708.392L495.894 704.571L499.468 699.895L503.049 695.213L498.049 691.388L501.63 686.721L505.204 682.049L508.783 677.378L512.366 672.706L515.947 668.03L519.521 663.363L523.095 658.696L526.676 654.015L531.678 657.847Z" fill="#FDCD00"/>
<path d="M545.27 660.851L540.257 656.996L536.674 661.682L533.095 666.344L529.516 671.011L525.942 675.693L522.363 680.365L518.782 685.037L515.208 689.703L511.63 694.375L516.643 698.215L513.064 702.886L509.483 707.568L514.48 711.393L510.907 716.055L515.903 719.89L512.329 724.557L517.339 728.402L522.344 732.232L518.758 736.909L523.756 740.734L528.762 744.56L533.77 748.405L538.77 752.235L543.773 756.07L547.352 751.388L552.372 755.228L557.368 759.063L560.944 754.396L565.942 758.217L569.518 753.55L574.531 757.39L578.112 752.714L581.693 748.042L586.694 751.872L590.268 747.205L593.842 742.543L597.43 737.857L601.007 733.19L604.583 728.514L608.157 723.847L603.159 720.016L606.74 715.34L610.321 710.673L613.895 705.996L608.885 702.156L612.459 697.49L607.463 693.659L611.044 688.987L606.036 685.157L601.028 681.313L604.602 676.646L599.604 672.815L594.606 668.995L589.588 665.155L584.593 661.32L579.592 657.485L574.589 653.659L571.016 658.326L566.003 654.491L561.007 650.661L557.426 655.338L552.423 651.507L548.844 656.17L545.27 660.851Z" fill="#FDCD00"/>
<path d="M661.079 727.319L664.656 722.647L668.232 717.98L663.236 714.145L659.655 718.817L654.637 714.977L649.641 711.147L646.065 715.809L642.484 720.49L638.91 725.157L643.906 728.992L647.485 724.325L652.495 728.165L657.5 731.991L653.922 736.662L650.348 741.329L655.358 745.169L658.937 740.502L662.51 735.84L666.092 731.159L661.079 727.319Z" fill="#F2A317"/>
<path d="M661.795 705.629L665.378 700.962L660.383 697.131L655.38 693.301L658.954 688.639L653.941 684.789L657.519 680.118L652.538 676.292L647.523 672.457L651.102 667.786L646.099 663.96L641.086 660.115L636.091 656.295L631.085 652.46L627.509 657.127L632.512 660.957L637.512 664.792L633.931 669.459L638.944 673.304L635.365 677.976L640.37 681.801L636.784 686.468L641.802 690.322L638.228 694.989L643.207 698.8L648.225 702.64L653.22 706.475L658.221 710.305L663.236 714.145L666.81 709.483L661.795 705.629Z" fill="#F2A317"/>
<path d="M661.079 727.319L664.656 722.647L668.232 717.98L663.236 714.145L659.655 718.817L654.637 714.977L649.641 711.147L646.065 715.809L642.484 720.49L638.91 725.157L643.906 728.992L647.485 724.325L652.495 728.165L657.5 731.991L653.922 736.662L650.348 741.329L655.358 745.169L658.937 740.502L662.51 735.84L666.092 731.159L661.079 727.319Z" fill="#F2A317"/>
<path d="M654.637 714.977L649.641 711.147L654.637 714.977Z" fill="black"/>
<path d="M661.079 727.319L664.656 722.647L668.232 717.98L663.236 714.145L659.655 718.817L656.073 723.484L661.079 727.319L657.5 731.991L653.922 736.662L650.348 741.329L655.358 745.169L658.937 740.502L662.51 735.84L666.092 731.159L661.079 727.319Z" fill="black"/>
<path d="M653.952 684.753L650.376 689.416L655.39 693.262L658.966 688.599L653.952 684.753Z" fill="black"/>
<path d="M651.799 697.973L656.796 701.808L661.795 705.629L665.378 700.962L660.383 697.131L655.38 693.301L651.799 697.973Z" fill="black"/>
<path d="M648.957 680.969L653.941 684.789L657.519 680.118L652.538 676.292L647.523 672.457L643.947 677.129L648.957 680.969Z" fill="black"/>
<path d="M663.236 714.145L666.81 709.483L661.795 705.629L658.221 710.305L663.236 714.145Z" fill="black"/>
<path d="M632.512 660.957L637.512 664.792L642.523 668.627L647.523 672.457L651.102 667.786L646.099 663.96L641.086 660.115L636.091 656.295L631.085 652.46L627.509 657.127L632.512 660.957Z" fill="black"/>
<path d="M554.485 793.923L549.485 790.092L554.485 793.923Z" fill="black"/>
<path d="M527.311 787.925L532.311 791.76L527.311 787.925Z" fill="black"/>
<path d="M588.807 790.566L583.807 786.736L580.228 791.412L585.226 795.233L588.807 790.566Z" fill="black"/>
<path d="M645.344 737.494L640.332 733.654L645.344 737.494Z" fill="black"/>
<path d="M655.358 745.169L650.348 741.329L655.358 745.169L651.777 749.841L648.195 754.517L644.619 759.184L641.045 763.856L637.464 768.523L633.883 773.209L630.309 777.881L626.732 782.548L623.147 787.219L619.57 791.891L624.551 795.712L628.135 791.031L631.719 786.354L635.293 781.687L638.866 777.02L642.445 772.348L646.031 767.672L649.608 763.005L653.182 758.338L656.763 753.657L660.344 748.99L655.358 745.169Z" fill="black"/>
<path d="M581.652 799.909L578.076 804.576L574.495 809.248L579.493 813.083L583.077 808.402L586.653 803.73L581.652 799.909Z" fill="black"/>
<path d="M590.243 799.013L586.665 803.678L591.677 807.523L595.255 802.858L590.243 799.013Z" fill="black"/>
<path d="M614.555 788.051L610.979 792.723L607.405 797.39L602.409 793.555L598.821 798.227L595.24 802.908L600.24 806.734L603.819 802.062L607.405 797.39L612.415 801.23L615.992 796.558L619.57 791.891L614.555 788.051Z" fill="black"/>
<path d="M547.323 803.266L542.327 799.435L538.746 804.107L543.742 807.937L547.323 803.266Z" fill="black"/>
<path d="M569.497 805.418L573.081 800.746L568.065 796.901L564.482 801.578L560.903 806.245L565.923 810.085L569.497 805.418Z" fill="black"/>
<path d="M555.905 802.403L552.326 807.079L557.309 810.895L560.889 806.219L555.905 802.403Z" fill="black"/>
<path d="M530.899 783.263L527.311 787.925L522.3 784.1L517.298 780.27L512.299 776.435L507.289 772.595L502.288 768.76L497.286 764.934L492.29 761.109L487.277 757.264L483.698 761.946L488.708 765.776L493.709 769.606L498.712 773.441L503.708 777.267L508.721 781.116L513.716 784.942L518.719 788.767L523.732 792.617L527.311 787.925L532.311 791.76L537.315 795.596L540.896 790.914L535.895 787.089L530.899 783.263Z" fill="black"/>
<path d="M544.45 786.204L540.879 790.868L545.894 794.708L549.465 790.044L544.45 786.204Z" fill="black"/>
<path d="M558.066 789.236L553.066 785.421L549.485 790.092L554.485 793.923L559.498 797.758L563.077 793.091L566.653 788.429L561.64 784.574L558.066 789.236Z" fill="black"/>
<path d="M566.653 788.429L571.639 792.23L575.218 787.568L570.227 783.747L566.653 788.429Z" fill="black"/>
<path d="M578.868 782.897L575.285 787.567L580.295 791.412L583.878 786.742L578.868 782.897Z" fill="black"/>
<path d="M587.393 782.055L583.807 786.736L588.807 790.566L592.391 785.885L595.965 781.218L590.969 777.383L587.393 782.055Z" fill="black"/>
<path d="M631.753 734.5L628.172 739.177L624.593 743.844L621.019 748.516L617.438 753.192L613.854 757.869L610.28 762.536L606.701 767.198L603.125 771.869L599.544 776.551L595.965 781.218L600.965 785.043L604.54 780.376L608.12 775.704L611.702 771.033L615.28 766.366L618.857 761.694L622.433 757.023L626.014 752.341L629.593 747.679L633.167 743.007L636.748 738.326L631.753 734.5Z" fill="black"/>
<path d="M633.914 721.336L630.333 726.003L635.331 729.834L638.91 725.157L642.484 720.49L637.488 716.66L633.914 721.336Z" fill="black"/>
<path d="M639.599 703.514L636.025 708.18L641.043 712.024L644.617 707.357L639.599 703.514Z" fill="black"/>
<path d="M553.784 763.735L558.784 767.56L562.368 762.889L557.368 759.063L553.784 763.735Z" fill="black"/>
<path d="M606.74 715.34L603.159 720.016L608.157 723.847L604.583 728.514L601.007 733.19L597.43 737.857L593.842 742.543L590.268 747.205L586.694 751.872L581.693 748.042L578.112 752.714L574.531 757.39L569.518 753.55L565.942 758.217L562.368 762.889L567.376 766.724L570.957 762.057L575.958 765.892L579.532 761.225L583.113 756.549L588.125 760.394L591.709 755.712L595.283 751.045L598.862 746.368L602.438 741.701L606.019 737.025L609.593 732.353L613.172 727.687L616.756 723.015L611.741 719.175L615.324 714.493L618.898 709.831L613.895 705.996L610.321 710.673L606.74 715.34Z" fill="black"/>
<path d="M612.467 697.457L608.891 702.124L613.903 705.964L617.479 701.298L612.467 697.457Z" fill="black"/>
<path d="M611.029 689.038L607.447 693.71L612.443 697.54L616.025 692.868L611.029 689.038Z" fill="black"/>
<path d="M639.626 703.482L643.207 698.8L638.228 694.989L634.645 699.656L639.626 703.482Z" fill="black"/>
<path d="M638.228 694.989L641.802 690.322L636.784 686.468L633.21 691.135L638.228 694.989Z" fill="black"/>
<path d="M636.784 686.468L640.37 681.801L635.365 677.976L631.786 682.647L636.784 686.468Z" fill="black"/>
<path d="M633.883 669.484L630.303 674.157L635.316 677.997L638.896 673.324L633.883 669.484Z" fill="black"/>
<path d="M623.927 661.803L628.933 665.639L633.931 669.459L637.512 664.792L632.512 660.957L627.509 657.127L623.927 661.803Z" fill="black"/>
<path d="M485.86 748.762L480.862 744.932L477.276 749.604L482.274 753.434L487.277 757.264L490.856 752.588L485.86 748.762Z" fill="black"/>
<path d="M479.392 736.452L475.818 741.119L480.834 744.96L484.408 740.294L479.392 736.452Z" fill="black"/>
<path d="M478.004 727.918L481.578 723.247L476.577 719.421L473.004 724.088L469.422 728.76L474.423 732.59L479.419 736.425L483.002 731.744L478.004 727.918Z" fill="black"/>
<path d="M475.128 710.947L471.553 715.616L476.554 719.446L480.129 714.778L475.128 710.947Z" fill="black"/>
<path d="M506.602 742.413L511.603 746.248L516.604 750.078L521.602 753.898L526.614 757.753L531.615 761.573L536.618 765.408L541.628 769.248L545.204 764.582L550.2 768.417L553.784 763.735L548.784 759.9L543.773 756.07L540.192 760.742L535.189 756.906L530.188 753.081L525.178 749.236L520.177 745.401L515.177 741.581L510.181 737.746L513.762 733.074L508.75 729.234L503.745 725.404L500.165 730.081L505.166 733.916L501.592 738.578L506.602 742.413Z" fill="black"/>
<path d="M502.332 716.897L498.749 721.583L503.745 725.404L507.33 720.732L502.332 716.897Z" fill="black"/>
<path d="M482.318 701.571L477.305 697.731L473.722 702.403L470.138 707.079L475.155 710.919L478.737 706.248L482.318 701.571Z" fill="black"/>
<path d="M484.456 688.398L479.457 684.567L475.883 689.229L472.309 693.901L477.305 697.731L480.882 693.064L484.456 688.398Z" fill="black"/>
<path d="M486.62 675.214L490.193 670.547L493.77 665.885L497.353 661.204L500.935 656.532L504.509 651.86L508.083 647.189L511.664 642.517L506.668 638.696L503.087 643.363L499.51 648.035L495.931 652.697L492.35 657.378L488.771 662.05L485.195 666.717L481.619 671.384L478.04 676.061L483.036 679.896L486.62 675.214Z" fill="black"/>
<path d="M509.483 707.568L504.47 703.728L508.053 699.047L511.63 694.375L506.632 690.54L510.206 685.873L513.779 681.211L517.368 676.53L520.944 671.858L524.521 667.196L528.095 662.514L533.095 666.344L536.674 661.682L540.257 656.996L545.27 660.851L548.844 656.17L552.423 651.507L547.41 647.668L543.836 652.33L538.835 648.499L535.261 653.176L531.678 657.847L526.677 654.012L523.096 658.694L519.522 663.361L515.948 668.028L512.367 672.704L508.784 677.376L505.205 682.047L501.631 686.719L498.05 691.386L503.05 695.211L499.469 699.893L495.895 704.57L500.891 708.39L497.317 713.062L502.332 716.897L505.906 712.23L509.483 707.568Z" fill="black"/>
<path d="M523.822 637.003L527.4 632.337L522.4 628.506L518.826 633.169L515.25 637.836L520.248 641.67L523.822 637.003Z" fill="black"/>
<path d="M555.961 646.816L552.375 651.492L557.375 655.326L560.961 650.65L555.961 646.816Z" fill="black"/>
<path d="M535.992 631.505L539.568 626.843L534.556 622.989L530.982 627.66L527.4 632.337L532.41 636.177L535.992 631.505Z" fill="black"/>
<path d="M571.016 658.326L574.589 653.659L579.592 657.485L584.593 661.32L589.588 665.155L594.606 668.995L599.604 672.815L604.602 676.646L601.028 681.313L606.036 685.157L611.044 688.987L614.618 684.32L609.618 680.485L613.198 675.814L608.181 671.969L603.186 668.148L598.185 664.313L593.17 660.474L588.169 656.648L583.173 652.813L578.173 648.992L573.158 645.143L569.579 649.824L564.581 645.994L561.007 650.661L566.003 654.491L571.016 658.326Z" fill="black"/>
<path d="M548.15 625.982L543.152 622.147L539.568 626.843L544.566 630.664L548.15 625.982Z" fill="black"/>
<path d="M551.722 621.376L548.144 626.038L553.141 629.872L556.718 625.211L551.722 621.376Z" fill="black"/>
<path d="M560.306 620.53L556.717 625.206L561.714 629.04L565.303 624.365L560.306 620.53Z" fill="black"/>
<path d="M568.89 619.59L565.311 624.256L570.322 628.1L573.901 623.433L568.89 619.59Z" fill="black"/>
<path d="M583.894 631.133L587.473 626.461L582.477 622.626L577.472 618.796L573.893 623.477L578.898 627.307L583.894 631.133Z" fill="black"/>
<path d="M597.491 634.131L602.486 637.951L607.482 641.787L612.502 645.631L617.5 649.457L622.499 653.287L627.509 657.127L631.085 652.46L626.072 648.62L621.076 644.795L616.079 640.96L611.061 637.12L606.063 633.285L601.065 629.459L596.062 625.634L591.049 621.794L587.473 626.461L592.488 630.301L597.491 634.131Z" fill="black"/>
<path d="M652.495 728.165L647.485 724.325L643.906 728.992L638.91 725.157L635.331 729.834L631.753 734.5L636.748 738.326L640.332 733.654L645.344 737.494L650.348 741.329L653.922 736.662L657.5 731.991L652.495 728.165Z" fill="white"/>
<path d="M658.221 710.305L653.22 706.475L648.225 702.64L643.207 698.8L639.626 703.482L644.643 707.322L641.07 711.988L646.065 715.809L649.641 711.147L654.637 714.977L659.655 718.817L663.236 714.145L658.221 710.305Z" fill="white"/>
<path d="M533.77 748.405L528.762 744.56L523.756 740.734L518.758 736.909L522.344 732.232L517.339 728.402L512.329 724.557L515.903 719.89L510.907 716.055L514.48 711.393L509.483 707.568L505.906 712.23L502.332 716.897L507.33 720.732L503.745 725.404L508.75 729.234L513.762 733.074L510.181 737.746L515.177 741.581L520.177 745.401L525.178 749.236L530.188 753.081L535.189 756.906L540.192 760.742L543.773 756.07L538.77 752.235L533.77 748.405Z" fill="white"/>
<path d="M547.352 751.388L543.773 756.07L548.784 759.9L553.784 763.735L557.368 759.063L552.372 755.228L547.352 751.388Z" fill="white"/>
<path d="M560.91 754.423L557.336 759.094L562.335 762.918L565.908 758.247L560.91 754.423Z" fill="white"/>
<path d="M516.643 698.215L511.63 694.375L508.053 699.047L504.47 703.728L509.483 707.568L513.064 702.886L516.643 698.215Z" fill="white"/>
<path d="M518.782 685.037L522.363 680.365L525.942 675.693L520.944 671.858L517.368 676.53L513.779 681.211L510.206 685.873L506.632 690.54L511.63 694.375L515.208 689.703L518.782 685.037Z" fill="white"/>
<path d="M533.095 666.344L528.095 662.514L524.521 667.196L529.516 671.011L533.095 666.344Z" fill="white"/>
</svg>
