<svg width="256" height="494" viewBox="0 0 256 494" fill="none" xmlns="http://www.w3.org/2000/svg">
<path d="M129.031 482.058H126.744V487.54H129.031V482.058Z" fill="#444F33"/>
<path d="M154.213 465.628H151.926V471.107H154.213V465.628Z" fill="#77553B"/>
<path d="M179.395 388.938H177.105H174.817H172.527H170.235H167.948H165.658H163.373H161.085H158.793H156.5H154.213V394.413V399.894V405.366V410.848V416.323V421.804V427.282V432.759V438.235V443.713V449.192V454.671V460.15V465.628H156.5H158.793H161.085H163.373H165.658H167.948H170.235H172.527H174.817H177.105H179.395H181.687V460.15V454.671V449.192V443.713V438.235V432.759V427.282V421.804V416.323V410.848V405.366V399.894V394.413V388.938H179.395Z" fill="#567D53"/>
<path d="M94.6902 388.938H92.4022H90.1142H87.8222H85.5352H83.2452H80.9572H78.6672H76.3802H74.0882H71.7982V394.413V399.894V405.366V410.848V416.323V421.804V427.282V432.759V438.235V443.713V449.192V454.671V460.15V465.628H74.0882H76.3802H78.6672H80.9572H83.2452H85.5352H87.8222H90.1142H92.4022H94.6902H96.9822H99.2702V460.15V454.671V449.192V443.713V438.235V432.759V427.282V421.804V416.323V410.848V405.366V399.894V394.413V388.938H96.9822H94.6902Z" fill="#567D53"/>
<path d="M151.926 388.938H149.633H147.346H145.056H142.77H140.483H138.186H135.901H133.608H131.318H129.031V394.413V399.894V405.366V410.848V416.323V421.804V427.282V432.759V438.235V443.713V449.192V454.671V460.15V465.628V471.107V476.586H131.318H133.608H135.901V471.107H138.186H140.483H142.77V465.628H145.056H147.346H149.633H151.926H154.213V460.15V454.671V449.192V443.713V438.235V432.759V427.282V421.804V416.323V410.848V405.366V399.894V394.413V388.938H151.926Z" fill="#426341"/>
<path d="M67.2202 388.938H64.9332H62.6402H60.3532H58.0652H55.7782H53.4852H51.1962H48.9032H46.6132V394.413V399.894V405.366V410.848V416.323V421.804V427.282V432.759V438.235V443.713V449.192V454.671V460.15V465.628V471.107V476.586V482.058H48.9032V476.586H51.1962H53.4852V471.107H55.7782H58.0652H60.3532V465.628H62.6402H64.9332H67.2202H69.5102H71.7982V460.15V454.671V449.192V443.713V438.235V432.759V427.282V421.804V416.323V410.848V405.366V399.894V394.413V388.938H69.5102H67.2202Z" fill="#426341"/>
<path d="M48.9032 377.982H46.6132V383.459H48.9032V377.982Z" fill="#706D48"/>
<path d="M48.9032 312.241H46.6132V317.721H48.9032V312.241Z" fill="#706C47"/>
<path d="M48.9032 306.765H46.6132V312.242H48.9032V306.765Z" fill="#6D6B47"/>
<path d="M48.9032 301.288H46.6132V306.765H48.9032V301.288Z" fill="#6A6B46"/>
<path d="M181.683 290.331H179.395V295.81H181.683V290.331Z" fill="#7A7E5A"/>
<path d="M19.1442 273.898H16.8542V279.378H19.1442V273.898Z" fill="#CEA882"/>
<path d="M16.8552 257.462H14.5692V262.941H16.8552V257.462Z" fill="#6D7151"/>
<path d="M19.1442 251.988H16.8542V257.463H19.1442V251.988Z" fill="#6E7252"/>
<path d="M51.1952 230.075H48.9032V235.552H51.1952V230.075Z" fill="#6F6C47"/>
<path d="M48.9032 224.598H46.6132V230.075H48.9032V224.598Z" fill="#707354"/>
<path d="M30.5912 219.119H28.3042V224.599H30.5912V219.119Z" fill="#6E7353"/>
<path d="M32.8832 213.64H30.5912V219.119H32.8832V213.64Z" fill="#747657"/>
<path d="M53.4862 208.163H51.1962V213.64H53.4862V208.163Z" fill="#6B6B46"/>
<path d="M179.395 202.686H177.105V208.163H179.395V202.686Z" fill="#7D815D"/>
<path d="M179.395 323.203H177.105H174.817H172.527H170.235H167.948H165.658H163.373H161.085H158.793H156.5H154.213H151.926H149.633H147.346H145.056H142.77H140.483H138.186H135.901H133.608H131.318H129.031H126.744H124.454H122.164H119.871H117.584H115.292H113.007H110.717H108.424H106.137H103.849H101.56H99.2702H96.9822H94.6902H92.4022H90.1142H87.8222H85.5352H83.2452H80.9572H78.6672H76.3802H74.0882H71.7982H69.5102H67.2202H64.9332H62.6402H60.3532H58.0652H55.7782H53.4852H51.1962H48.9032H46.6132V328.68H48.9032H51.1962H53.4852H55.7782H58.0652H60.3532H62.6402H64.9332H67.2202H69.5102H71.7982H74.0882H76.3802H78.6672H80.9572H83.2452H85.5352H87.8222H90.1142H92.4022H94.6902H96.9822H99.2702H101.56H103.849H106.137H108.424H110.717H113.007H115.292H117.584H119.871H122.164H124.454H126.744H129.031H131.318H133.608H135.901H138.186H140.483H142.77H145.056H147.346H149.633H151.926H154.213H156.5H158.793V334.154H156.5V339.634H154.213V345.11V350.59V356.064V361.544H156.5V367.023H158.793V372.5V377.982H161.085H163.373H165.658V372.5V367.023H163.373V361.544H161.085V356.064V350.59V345.11H163.373V339.634H165.658V345.11H167.948V350.59H170.235V356.064V361.544V367.023V372.5V377.982H167.948V383.459V388.938H170.235H172.527V383.459H174.817H177.105V377.982V372.5V367.023V361.544V356.064V350.59H174.817V345.11H172.527V339.634H170.235V334.154V328.68H172.527H174.817H177.105H179.395H181.687V323.203H179.395Z" fill="#635F49"/>
<path d="M113.007 224.598V219.119V213.64V208.163V202.686V197.209H110.717V202.686V208.163V213.64V219.119V224.598V230.075H113.007V224.598Z" fill="#635F49"/>
<path d="M103.85 191.729H101.56V197.208H103.85V191.729Z" fill="#797E59"/>
<path d="M158.792 367.023H156.5V372.5H158.792V367.023Z" fill="#847C60"/>
<path d="M156.5 361.544H154.213V367.023H156.5V361.544Z" fill="#847C60"/>
<path d="M163.372 356.064H161.085V361.544H163.372V356.064Z" fill="#847C60"/>
<path d="M177.104 345.11H174.817V350.59H177.104V345.11Z" fill="#847C60"/>
<path d="M172.527 334.154H170.235V339.634H172.527V334.154Z" fill="#847C60"/>
<path d="M113.007 202.686V208.163V213.64V219.119V224.598V230.075H115.292V224.598V219.119V213.64V208.163V202.686V197.209H113.007V202.686Z" fill="#847C60"/>
<path d="M46.6132 191.729V197.209H44.3262H42.0382V202.686H39.7482H37.4592V208.163H35.1712V213.64H32.8842V219.119H30.5912V224.598H28.3042H26.0112V230.075V235.552H23.7192V241.029H21.4322V246.509H19.1442V251.988V257.462H16.8572V262.942H14.5692V268.421H16.8572V273.898H19.1442H21.4322H23.7192V279.377H26.0112H28.3042H30.5912H32.8842H35.1712H37.4592V273.898H39.7482V268.421H42.0382V262.942V257.462H44.3262H46.6132V251.988V246.509V241.029V235.552V230.075V224.598H48.9032V219.119V213.64V208.163V202.686V197.209H51.1962V191.729H48.9032H46.6132Z" fill="#847C60"/>
<path d="M167.948 345.11H165.658V339.634H163.373V345.11H161.085V350.59V356.064H163.373V361.544V367.023H165.658V372.5V377.982H167.948H170.235V372.5V367.023V361.544V356.064V350.59H167.948V345.11Z" fill="#A49470"/>
<path d="M177.105 328.68H174.817H172.527H170.235V334.154H172.527V339.634V345.11H174.817H177.105V350.59V356.064V361.544V367.023V372.5H179.395H181.687V367.023V361.544V356.064V350.59V345.11V339.634V334.154V328.68H179.395H177.105Z" fill="#A49470"/>
<path d="M154.213 328.68H151.926H149.633H147.346H145.056H142.77H140.483H138.186H135.901H133.608H131.318H129.031H126.744H124.454H122.164H119.871H117.584H115.292H113.007H110.717H108.424H106.137H103.849H101.56H99.2702H96.9822H94.6902H92.4022H90.1142H87.8222H85.5352H83.2452H80.9572H78.6672V334.154H80.9572H83.2452V339.634H85.5352H87.8222H90.1142V345.11H92.4022H94.6902V350.59H96.9822H99.2702H101.56H103.849V356.064H106.137H108.424H110.717V361.544H113.007H115.292H117.584H119.871V367.023H122.164H124.454H126.744H129.031H131.318V372.5H133.608H135.901H138.186H140.483H142.77H145.056H147.346H149.633H151.926H154.213H156.5V367.023H154.213V361.544V356.064V350.59V345.11V339.634H156.5V334.154H158.793V328.68H156.5H154.213Z" fill="#A49470"/>
<path d="M179.395 312.241V306.765V301.288V295.81V290.331V284.852V279.377V273.898V268.421V262.942H177.105V257.462V251.988V246.509V241.029V235.552V230.075V224.598V219.119V213.64H174.817V208.163V202.686V197.209H172.527V191.729H170.235H167.948V186.25H165.658H163.373H161.085H158.793H156.5H154.213H151.926H149.633H147.346H145.056H142.77H140.483H138.186H135.901H133.608V191.729H131.318H129.031H126.744V197.209H124.454H122.164H119.871H117.584H115.292V202.686V208.163V213.64V219.119V224.598V230.075H113.007H110.717V224.598V219.119V213.64V208.163V202.686V197.209H108.424H106.137H103.849H101.56H99.2702V191.729V186.25H96.9822V191.729H94.6902V186.25H92.4022H90.1142H87.8222H85.5352H83.2452H80.9572H78.6672H76.3802H74.0882H71.7982V191.729H69.5102V197.209H67.2202V202.686H64.9332V208.163V213.64H62.6402V219.119V224.598H60.3532V230.075V235.552V241.029V246.509V251.988V257.462V262.942V268.421V273.898V279.377V284.852H62.6402V290.331V295.81H64.9332V301.288V306.765H67.2202V312.241H69.5102V317.721H71.7982V323.203H74.0882H76.3802H78.6672H80.9572H83.2452H85.5352H87.8222H90.1142H92.4022H94.6902H96.9822H99.2702H101.56H103.849H106.137H108.424H110.717H113.007H115.292H117.584H119.871H122.164H124.454H126.744H129.031H131.318H133.608H135.901H138.186H140.483H142.77H145.056H147.346H149.633H151.926H154.213H156.5H158.793H161.085H163.373H165.658H167.948H170.235H172.527H174.817H177.105H179.395H181.687V317.721H179.395V312.241Z" fill="#A49470"/>
<path d="M209.159 262.942V257.462H206.867V251.988V246.509H204.577V241.029V235.552H202.289H199.997V230.075H197.709V224.598H195.422V219.119H193.13V213.64H190.842V208.163H188.55V202.686H186.265H183.975V197.209H181.687H179.395H177.105V202.686H179.395V208.163V213.64V219.119H181.687V224.598V230.075V235.552V241.029V246.509V251.988V257.462H183.975V262.942V268.421H186.265V273.898H188.55V279.377H190.842H193.13H195.422H197.709H199.997H202.289H204.577V273.898H206.867H209.159V268.421H211.449V262.942H209.159Z" fill="#A49470"/>
<path d="M163.373 377.982H161.086H158.794V372.5H156.502H154.215H151.928H149.636H147.348H145.058H142.773H140.486H138.189H135.904H133.612H131.322V367.023H129.035H126.748H124.458H122.168H119.876V361.544H117.589H115.297H113.012H110.722V356.064H108.43H106.143H103.856V350.59H101.566H99.2762H96.9882H94.6962V345.11H92.4082H90.1212V339.633H87.8292H85.5422H83.2522V334.153H80.9642H78.6742V328.679H76.3872H74.0952H71.8052H69.5182H67.2282H64.9412H62.6492H60.3622H58.0742H55.7782H53.4862H51.1962H48.9042H46.6142V334.153V339.633V345.11V350.59V356.064V361.544V367.023V372.5V377.982H48.9042V383.459H51.1962C71.6802 383.459 92.1682 383.459 112.652 383.459C118.112 383.459 123.57 383.459 129.032 383.459H131.319H133.609H135.901C145.056 383.459 154.213 383.459 163.373 383.459H165.658H167.948V377.982H165.658H163.373Z" fill="#7F7550"/>
<path d="M179.395 372.5H177.105V377.982V383.459H179.395H181.687V377.982V372.5H179.395Z" fill="#7F7550"/>
<path d="M51.1962 323.203H53.4852H55.7782H58.0652H60.3532H62.6402H64.9332H67.2202H69.5102H71.7982V317.721H69.5102V312.241H67.2202V306.765H64.9332V301.288V295.81H62.6402V290.331V284.852H60.3532V279.377V273.898V268.421V262.942V257.462V251.988V246.509V241.029V235.552V230.075V224.598H62.6402V219.119V213.64H64.9332V208.163V202.686H67.2202V197.209H69.5102V191.729H71.7982V186.25H69.5102H67.2202H64.9332H62.6402H60.3532H58.0652V191.729H55.7782H53.4852V197.209V202.686V208.163V213.64H51.1962V219.119V224.598V230.075V235.552H48.9032V241.029V246.509V251.988V257.462V262.942V268.421V273.898V279.377V284.852V290.331V295.81V301.288V306.765V312.241V317.721H46.6132V323.203H48.9032H51.1962Z" fill="#7F7550"/>
<path d="M133.608 180.775H131.318V186.25H133.608V180.775Z" fill="#CAA581"/>
<path d="M62.6402 465.628H60.3532V471.107H62.6402V465.628Z" fill="#426341"/>
<path d="M167.948 109.556H165.658H163.373H161.085H158.793H156.5H154.213H151.926H149.633H147.346V115.035H149.633H151.926H154.213V120.515H156.5H158.793H161.085H163.373H165.658V115.035H167.948H170.235V109.556H167.948Z" fill="#F59F7D"/>
<path d="M129.031 169.814H126.744H124.454H122.164H119.871H117.584H115.292H113.007H110.717H108.424H106.137H103.849H101.56H99.2702H96.9822H94.6902V175.296V180.775V186.25H96.9822H99.2702H101.56V180.775H103.849H106.137H108.424H110.717H113.007V175.296H115.292H117.584H119.871H122.164H124.454H126.744H129.031H131.318H133.608V169.814H131.318H129.031Z" fill="#F59F7D"/>
<path d="M96.9822 120.515V115.035H99.2702H101.56H103.849V109.556H101.56H99.2702H96.9822H94.6902H92.4022H90.1142H87.8222H85.5352H83.2452H80.9572V115.035H83.2452H85.5352V120.515H87.8222H90.1142H92.4022H94.6902H96.9822Z" fill="#F59F7D"/>
<path d="M80.9572 109.556H78.6672V115.035H80.9572V109.556Z" fill="#F59F7D"/>
<path d="M149.633 98.602H147.346H145.056H142.77H140.483V104.081V109.556H142.77H145.056H147.346H149.633H151.926V104.081V98.602H149.633Z" fill="#28201B"/>
<path d="M108.424 98.602H106.137H103.849H101.56V104.081V109.556H103.849H106.137H108.424H110.717H113.007V104.081V98.602H110.717H108.424Z" fill="#28201B"/>
<path d="M62.6402 93.122H60.3532V98.602H62.6402V93.122Z" fill="#DC9D7B"/>
<path d="M48.9032 93.122H46.6132V98.602H48.9032V93.122Z" fill="#BE8263"/>
<path d="M53.4852 98.602H51.1962H48.9032H46.6132V93.122H44.3262H42.0382V98.602V104.081V109.556H44.3262H46.6132V115.035H48.9032H51.1962H53.4852V109.556H55.7782V104.081V98.602H53.4852Z" fill="#F1A58C"/>
<path d="M165.658 71.212H163.373V76.694H165.658V71.212Z" fill="#DE9E7C"/>
<path d="M199.997 482.058V476.586H197.709H195.422H193.13H190.842V471.107H188.55H186.265H183.975H181.687H179.395H177.105H174.817H172.527H170.235H167.948H165.658H163.373H161.085H158.793H156.5H154.213H151.926H149.633H147.346H145.056H142.77V476.586H140.483H138.186H135.901V482.058H133.608H131.318V487.54H133.608H135.901H138.186H140.483H142.77H145.056H147.346H149.633H151.926H154.213H156.5H158.793H161.085H163.373H165.658H167.948H170.235H172.527H174.817H177.105H179.395H181.687H183.975H186.265H188.55H190.842H193.13H195.422H197.709H199.997H202.289V482.058H199.997Z" fill="#A16F4B"/>
<path d="M117.584 476.586H115.292H113.007H110.717V471.107H108.424H106.137H103.849H101.56H99.2702H96.9822H94.6902H92.4022H90.1142H87.8222H85.5352H83.2452H80.9572H78.6672H76.3802H74.0882H71.7982H69.5102H67.2202H64.9332H62.6402H60.3532V476.586H58.0652H55.7782H53.4852V482.058H51.1962H48.9032V487.54H51.1962H53.4852H55.7782H58.0652H60.3532H62.6402H64.9332H67.2202H69.5102H71.7982H74.0882H76.3802H78.6672H80.9572H83.2452H85.5352H87.8222H90.1142H92.4022H94.6902H96.9822H99.2702H101.56H103.849H106.137H108.424H110.717H113.007H115.292H117.584H119.871V482.058H117.584V476.586Z" fill="#A16F4B"/>
<path d="M35.1712 323.203H32.8842H30.5912V317.721V312.241V306.765H32.8842V301.288V295.81H35.1712V290.331V284.852H32.8842H30.5912H28.3042V279.377H26.0112H23.7192H21.4322H19.1442H16.8572V273.898H14.5692V279.377H12.2772V284.852V290.331V295.81V301.288V306.765H14.5692V312.241V317.721V323.203H16.8572V328.68H14.5692V334.154V339.634H16.8572V345.11H19.1442H21.4322H23.7192V350.59H26.0112H28.3042H30.5912H32.8842H35.1712V345.11H32.8842V339.634V334.154H35.1712V339.634H37.4592V334.154V328.68H35.1712V323.203Z" fill="#F2B391"/>
<path d="M211.449 279.377H209.159H206.867H204.577H202.289V284.852H199.997H197.709H195.422H193.13H190.842V290.331H193.13V295.81V301.288V306.765H195.422V312.241V317.721V323.203H193.13V328.68H190.842V334.154H188.55V339.634H190.842H193.13V345.11V350.59H195.422H197.709H199.997H202.289H204.577H206.867V345.11H209.159V339.634H211.449V334.154V328.68V323.203V317.721V312.241H213.736V306.765V301.288V295.81V290.331V284.852V279.377H211.449Z" fill="#F2B391"/>
<path d="M129.031 175.296H126.744H124.454H122.164H119.871H117.584H115.292H113.007V180.775H110.717H108.424H106.137H103.849H101.56V186.25H99.2702V191.729H101.56H103.849H106.137V197.209H108.424H110.717H113.007H115.292H117.584V191.729H119.871H122.164H124.454H126.744H129.031V186.25H131.318V180.775H133.608V175.296H131.318H129.031Z" fill="#F2B391"/>
<path d="M172.527 98.602V93.122V87.645V82.168H170.235V76.694V71.212H167.948H165.658V76.694H163.373H161.086H158.794H156.502H154.215H151.928H149.636H147.348H145.058V71.212H142.773H140.486H138.189H135.904H133.612H131.322H129.035V76.694H126.748H124.458H122.168H119.876H117.589H115.297V71.212H113.012H110.722H108.43H106.143H103.856V65.733H101.566H99.2762H96.9882H94.6962V60.256H92.4082H90.1212H87.8292H85.5422H83.2522H80.9642H78.6742V65.733H76.3872H74.0952V71.212H71.8052H69.5182V76.694H67.2282V82.168H64.9412V87.645V93.122H62.6492V98.602H60.3622H58.0742H55.7782V104.081V109.556H53.4862V115.035H51.1962H48.9042H46.6142V109.556H44.3262H42.0392V104.081V98.602V93.122H44.3262V87.645H42.0392V82.168H39.7492H37.4592H35.1722V87.645V93.122H32.8842V98.602H35.1722V104.081V109.556H37.4592V115.035H39.7492V120.515H42.0392H44.3262H46.6142V125.992H48.9042H51.1962H53.4862V120.515H55.7782H58.0652H60.3532V125.992H58.0652V131.474V136.951H60.3532V142.426V147.905H62.6402H64.9322V153.382H67.2192H69.5092H71.7962V158.859H74.0862H76.3782H78.6652V164.341H80.9552H83.2432H85.5332H87.8202H90.1122H92.3992H94.6872V169.816H96.9792H99.2672H101.557H103.847H106.134H108.421H110.713H113.003H115.288H117.58H119.867H122.159H124.449H126.739H129.026H131.313H133.603H135.895V164.341H138.18H140.477H142.764H145.049H147.339H149.627H151.919V158.859H154.206H156.493H158.785V153.382H161.077H163.364H165.649V147.905H167.939V142.426H170.226V136.951H172.518V131.474V125.992V120.515H174.808V115.035V109.556V104.081H172.518V98.602H172.527ZM99.2702 115.035H96.9822V120.515H94.6902H92.4022H90.1152H87.8232H85.5362V115.035H83.2462H80.9582H78.6682V109.556H80.9582H83.2462H85.5362H87.8232H90.1152H92.4022H94.6902H96.9822H99.2702H101.56V104.081V98.602H103.85H106.137H108.424H110.716H113.006V104.081V109.556H110.716H108.424H106.137H103.85V115.035H101.56H99.2702ZM129.031 142.425H126.744V147.904H124.454V153.381H122.164H119.872H117.585H115.293H113.008H110.718H108.426V147.904H106.139H103.852V142.425H101.562V136.95H103.852H106.139H108.426H110.718H113.008H115.293H117.585H119.872H122.164H124.454H126.744H129.031V142.425ZM131.318 125.991V131.473H129.031H126.744H124.454H122.164H119.872V125.991H122.164H124.454H126.744V120.514H129.031H131.318V125.991ZM170.235 115.035H167.948H165.658V120.515H163.373H161.086H158.794H156.502H154.215V115.035H151.928H149.636H147.348V109.556H145.058H142.773H140.486V104.081V98.602H142.773H145.058H147.348H149.636H151.928V104.081V109.556H154.215H156.502H158.794H161.086H163.373H165.658H167.948H170.235V115.035Z" fill="#F2B391"/>
<path d="M179.395 54.779V49.302H177.105V43.823H174.817H172.527V38.343H170.235V32.869H167.948H165.658H163.373V27.39H161.085H158.793H156.5V21.91H154.213H151.926H149.633V16.433H147.346H145.056H142.77H140.483H138.186V10.954H135.901H133.608H131.318H129.031H126.744H124.454H122.164H119.871V5.47897H117.584H115.292H113.007H110.717H108.424H106.137H103.849V10.954H101.56H99.2702H96.9822H94.6902H92.4022H90.1142H87.8222V16.433H85.5352H83.2452H80.9572H78.6672H76.3802H74.0882V10.954H71.7982V5.47897H69.5102H67.2202V10.954H64.9332V16.433H62.6402H60.3532H58.0652V10.954H55.7782H53.4852V16.433V21.91H51.1962V27.39H48.9032V32.869H46.6132V38.343V43.823H44.3262V49.302H42.0382V54.779V60.256V65.733V71.212V76.694H44.3262V82.169H46.6132V87.646H48.9032V93.122H51.1962H53.4852V98.602H55.7782H58.0652V93.122H60.3532V87.646H62.6402V82.169H64.9332V76.694V71.212H67.2202V65.733H69.5102H71.7982V60.256H74.0882H76.3802H78.6672V54.779H80.9572H83.2452H85.5352H87.8222H90.1142H92.4022H94.6902V60.256H96.9822H99.2702H101.56V65.733H103.849H106.137H108.424H110.717V71.212H113.007H115.292H117.584H119.871V65.733H122.164H124.454H126.744H129.031H131.318H133.608H135.901H138.186V71.212H140.483H142.77H145.056H147.346H149.633H151.926H154.213H156.5H158.793H161.085H163.373V65.733H161.085H158.793V60.256H161.085H163.373H165.658H167.948H170.235V65.733H172.527H174.817H177.105H179.395H181.687V60.256V54.779H179.395Z" fill="#78572B"/>
<path d="M126.744 136.95H124.454H122.164H119.871H117.584H115.292H113.007H110.717H108.424H106.137H103.849H101.56V142.425H103.849V147.904H106.137H108.424V153.381H110.717H113.007H115.292H117.584H119.871H122.164H124.454V147.904H126.744V142.425H129.031V136.95H126.744Z" fill="white"/>
<path d="M109.573 86.599H90.8262V91.384H109.573V86.599Z" fill="#28201B"/>
<path d="M159.218 86.599H140.483V91.384H159.218V86.599Z" fill="#28201B"/>
<path d="M12.2772 268.421V273.898H14.5692H16.8542V268.421H14.5692H12.2772Z" fill="black"/>
<path d="M167.948 383.459H165.658V388.938H167.948V383.459Z" fill="black"/>
<path d="M21.8482 273.898H16.8542V279.377H21.8482H26.8312V284.852H28.3042H29.1212H30.5912V279.377H29.1212H28.3042H26.8312V273.898H21.8482Z" fill="black"/>
<path d="M39.7482 273.898H37.4562V279.377H35.1712H32.8842H30.5912V284.852H32.8842H35.1712V290.331V295.81H32.8842V301.288V306.765H30.5912V312.241V317.721V323.203H32.8842H35.1712V317.721V312.241V306.765V301.288H37.4562V295.81V290.331V284.852H39.7482V279.377H42.0382V273.898V268.421H39.7482V273.898Z" fill="black"/>
<path d="M216.024 268.421V262.942H213.736V257.462H211.449V251.988V246.509H209.159V241.029H206.867V235.552H204.577V241.029V246.509H206.867V251.988V257.462H209.159V262.942H211.449V268.421H209.159V273.898H206.867H204.577V279.377H206.867H209.159H211.449H213.736V284.852V290.331V295.81V301.288V306.765V312.241H211.449V317.721V323.203V328.68V334.154V339.634H209.159V345.11H206.867V350.59H209.159H211.449V345.11H213.736V339.634H216.024V334.154V328.68H213.736V323.203H216.024V317.721V312.241V306.765V301.288V295.81V290.331V284.852V279.377V273.898H213.736H216.024V268.421H213.736H216.024Z" fill="black"/>
<path d="M12.2772 262.942V268.421H14.5692V262.942V257.462H12.2772V262.942Z" fill="black"/>
<path d="M202.284 230.075V224.598H199.997V219.119H197.709V213.64H195.422V208.163H193.13V202.686H190.842H188.55V208.163H190.842V213.64H193.13V219.119H195.422V224.598H197.709V230.075H199.997V235.552H202.284H204.577V230.075H202.284Z" fill="black"/>
<path d="M23.7192 230.075H21.4322V235.552H19.1442V241.029H16.8542V246.509H14.5692V251.988V257.462H16.8542V251.988H19.1442V246.509H21.4322V241.029H23.7192V235.552H26.0112V230.075V224.598H23.7192V230.075Z" fill="black"/>
<path d="M28.3032 219.119H26.0112V224.599H28.3032V219.119Z" fill="black"/>
<path d="M30.5912 213.64H28.3042V219.119H30.5912V213.64Z" fill="black"/>
<path d="M30.5912 208.163V213.64H32.8842H35.1712V208.163H32.8842H30.5912Z" fill="black"/>
<path d="M37.4562 202.686H35.1712V208.163H37.4562V202.686Z" fill="black"/>
<path d="M186.265 197.209H183.975V202.686H186.265H188.55V197.209H186.265Z" fill="black"/>
<path d="M37.4562 197.209V202.686H39.7482H42.0382V197.209H39.7482H37.4562Z" fill="black"/>
<path d="M181.683 191.729H179.395H177.105V186.25H174.817H172.527H170.235H167.948V191.729H170.235H172.527V197.209H174.817V202.686V208.163V213.64H177.105V219.119V224.598V230.075V235.552V241.029V246.509V251.988V257.462V262.942H179.395V268.421V273.898V279.377V284.852V290.331H181.683V295.81H179.395V301.288V306.765V312.241V317.721H181.683V323.203V328.68V334.154V339.634V345.11V350.59V356.064V361.544V367.023V372.5V377.982V383.459H179.395H177.105H174.817H172.527V388.938H174.817H177.105H179.395H181.683V394.413V399.894V405.366V410.848V416.323V421.804V427.282V432.759V438.235V443.713V449.192V454.671V460.15V465.628H179.395H177.105H174.817H172.527H170.235H167.948H165.658H163.373H161.08H158.793H156.5H154.213V471.107H156.5H158.793H161.08H163.373H165.658H167.948H170.235H172.527H174.817H177.105H179.395H181.683H183.975H186.265H188.55H190.842V465.628H188.55H186.265H183.975V460.15V454.671V449.192V443.713V438.235V432.759V427.282V421.804V416.323V410.848V405.366V399.894V394.413V388.938V383.459V377.982V372.5V367.023V361.544V356.064V350.59V345.11V339.634V334.154V328.68V323.203V317.721V312.241V306.765V301.288V295.81V290.331V284.852V279.377H186.265V284.852H188.55V290.331V295.81V301.288H190.842V306.765H193.13V301.288V295.81V290.331H190.842V284.852H193.13H195.422H197.709H199.997H202.284V279.377H199.997H197.709H195.422H193.13H190.842H188.55V273.898H186.265V268.421H183.975V262.942V257.462H181.683V251.988V246.509V241.029V235.552V230.075V224.598V219.119H179.395V213.64V208.163H177.105V202.686V197.209H179.395H181.683H183.975V191.729H181.683Z" fill="black"/>
<path d="M122.164 191.729H119.871H117.584V197.209H119.871H122.164H124.454H126.744V191.729H124.454H122.164Z" fill="black"/>
<path d="M106.136 191.729H103.849V197.208H106.136V191.729Z" fill="black"/>
<path d="M101.56 191.729H99.2702V197.208H101.56V191.729Z" fill="black"/>
<path d="M42.0382 191.729V197.209H44.3262H46.6132V191.729H44.3262H42.0382Z" fill="black"/>
<path d="M133.608 191.729V186.25H131.318H129.031V191.729H131.318H133.608Z" fill="black"/>
<path d="M96.9822 186.25H94.6902V191.73H96.9822V186.25Z" fill="black"/>
<path d="M51.1962 224.598V219.119V213.64V208.163H53.4852V202.686V197.209V191.729H55.7782H58.0582V186.25H55.7782H53.4852H51.1962H48.9032H46.6132V191.729H48.9032H51.1962V197.209H48.9032V202.686V208.163V213.64V219.119V224.598V230.075H51.1962V224.598Z" fill="black"/>
<path d="M138.186 186.25H140.476H142.77H145.056H147.346H149.633H151.926H154.213H156.5H158.793V180.775H156.5H154.213H151.926H149.633H147.346H145.056H142.77H140.476H138.186H135.901V175.296H133.608V180.775V186.25H135.901H138.186Z" fill="black"/>
<path d="M135.9 169.814H133.608V175.296H135.9V169.814Z" fill="black"/>
<path d="M202.284 482.058V487.54H199.997H197.71H195.423H193.131H190.844H188.552H186.267H183.977H181.685H179.397H177.107H174.82H172.53H170.238H167.951H165.661H163.376H161.084H158.797H156.505H154.218H151.931H149.639H147.351H145.061H142.776H140.482H138.192H135.907H133.615H131.325V482.058H133.615H135.907V476.586H133.615H131.325H129.038V471.106V465.627V460.15V454.671V449.191V443.712V438.235V432.758V427.281V421.804V416.322V410.847V405.365V399.893V394.411V388.936H131.325H133.615H135.907H138.192H140.482H142.776H145.061H147.351H149.639H151.931H154.218H156.505H158.797H161.084H163.376H165.661V383.457H163.376H161.084H158.797H156.505H154.218H151.931H149.639H147.351H145.061H142.776H140.482H138.192H135.907H133.615H131.325H129.038H126.751H124.461H122.171H119.879H117.592H115.3H113.015H110.725H108.433H106.146H103.859H101.569H99.2792H96.9912H94.6992H92.4112H90.1242H87.8322H85.5452H83.2552H80.9672H78.6752H76.3902H74.0982H71.8082H69.5212H67.2312H64.9442H62.6522H60.3652H58.0702H55.7782H53.4862H51.1962H48.9042H46.6142V377.98V372.498V367.021V361.542V356.062V350.588V345.108V339.631V334.151V328.677V323.2V317.718V312.238V306.761V301.284H48.9042V295.807V290.328V284.849V279.374V273.894V268.417V262.937V257.458V251.983V246.504V241.024V235.547V230.07H46.6142V235.547V241.024V246.504V251.983V257.458H44.3262H42.0392V262.937V268.417H44.3262V262.937H46.6142V268.417V273.894V279.374V284.849H44.3262V290.328V295.807V301.284V306.761V312.238V317.718V323.2V328.677V334.151V339.631V345.108V350.588V356.062V361.542V367.021V372.498V377.98V383.457V388.936V394.411V399.893V405.365V410.847V416.322V421.804V427.281V432.758V438.235V443.712V449.191V454.671V460.15V465.627V471.106V476.586V482.058V487.54V493.014H46.6142H48.9042H51.1962H53.4862H55.7782H58.0592H60.3542H62.6412H64.9332H67.2202H69.5102H71.7972H74.0872H76.3792H78.6642H80.9562H83.2442H85.5342H87.8212H90.1132H92.4002H94.6882H96.9802H99.2682H101.558H103.848H106.135H108.422H110.714H113.004H115.289H117.581H119.868H122.16H124.45V487.54H126.74V482.058H129.027V487.54H126.74V493.014H129.027H131.314H133.604H135.896H138.181H140.471H142.765H145.05H147.34H149.628H151.92H154.207H156.494H158.786H161.073H163.365H165.65H167.94H170.227H172.519H174.809H177.096H179.386H181.674H183.966H186.256H188.541H190.833H193.12H195.412H197.699H199.986H202.273H204.565H206.855V487.54V482.058H204.565V476.586H202.273H199.986V482.058H202.284ZM124.454 394.413V399.895V405.367V410.849V416.324V421.806V427.283V432.76V438.237V443.714V449.193V454.673V460.152V465.629V471.108V476.588V482.06H122.164H119.872V487.542H117.585H115.293H113.008H110.718H108.426H106.139H103.852H101.562H99.2722H96.9842H94.6922H92.4042H90.1172H87.8252H85.5382H83.2482H80.9602H78.6682H76.3832H74.0912H71.8012H69.5142H67.2242H64.9372H62.6452H60.3582H58.0632H55.7782H53.4862H51.1962H48.9042V482.06H46.6142V476.588V471.108V465.629V460.152V454.673V449.193V443.714V438.237V432.76V427.283V421.806V416.324V410.849V405.367V399.895V394.413V388.938H48.9042H51.1962H53.4862H55.7782H58.0592H60.3542H62.6412H64.9332H67.2202H69.5102H71.7972H74.0872H76.3792H78.6642H80.9562H83.2442H85.5342H87.8212H90.1132H92.4002H94.6882H96.9802H99.2682V394.413V399.895V405.367V410.849V416.324V421.806V427.283V432.76V438.237V443.714V449.193V454.673V460.152V465.629H96.9802H94.6882H92.4002H90.1132H87.8212H85.5342H83.2442H80.9562H78.6642H76.3792H74.0872H71.7972H69.5102H67.2202H64.9332H62.6412V471.108H64.9332H67.2202H69.5102H71.7972H74.0872H76.3792H78.6642H80.9562H83.2442H85.5342H87.8212H90.1132H92.4002H94.6882H96.9802H99.2682H101.558H103.848H106.135V465.629H103.848H101.558V460.152V454.673V449.193V443.714V438.237V432.76V427.283V421.806V416.324V410.849V405.367V399.895V394.413V388.938H103.848H106.135H108.422H110.714H113.004H115.289H117.581H119.868H122.16H124.45V394.413H124.454Z" fill="black"/>
<path d="M119.871 476.586H117.584V482.058H119.871V476.586Z" fill="black"/>
<path d="M53.4852 482.058V476.586H51.1962H48.9032V482.058H51.1962H53.4852Z" fill="black"/>
<path d="M193.13 476.586H195.422H197.709H199.997V471.107H197.709H195.422H193.13H190.842V476.586H193.13Z" fill="black"/>
<path d="M140.476 476.586H142.77V471.107H140.476H138.186H135.901V476.586H138.186H140.476Z" fill="black"/>
<path d="M110.717 471.107V476.586H113.007H115.292V471.107H113.007H110.717Z" fill="black"/>
<path d="M58.0582 476.586H60.3532V471.107H58.0582H55.7782H53.4852V476.586H55.7782H58.0582Z" fill="black"/>
<path d="M147.346 471.107H149.633H151.926V465.628H149.633H147.346H145.056H142.77V471.107H145.056H147.346Z" fill="black"/>
<path d="M60.3532 136.95H58.0582V131.473V125.991H60.3532V120.515H58.0582H56.9192H55.7782H53.4852H49.4792H42.0382V125.991H49.4792H53.4852V131.473V136.95H55.7782V142.425H58.0582V147.904H60.3532V142.425V136.95Z" fill="black"/>
<path d="M188.55 350.59V356.064H190.842H193.13H195.422H197.709H199.997H202.284H204.577V350.59H202.284H199.997H197.709H195.422H193.13V345.11V339.634H190.842H188.55V345.11V350.59Z" fill="black"/>
<path d="M30.5912 350.59H28.3042H26.0112V356.064H28.3042H30.5912H32.8842H35.1712V350.59H32.8842H30.5912Z" fill="black"/>
<path d="M37.4562 345.11H35.1712V350.59H37.4562V345.11Z" fill="black"/>
<path d="M19.1442 350.59H21.4322H23.7192V345.11H21.4322H19.1442H16.8542V350.59H19.1442Z" fill="black"/>
<path d="M16.8552 339.634H14.5692V345.111H16.8552V339.634Z" fill="black"/>
<path d="M35.1712 334.154H32.8842V339.634V345.11H35.1712V339.634V334.154Z" fill="black"/>
<path d="M188.55 323.203V328.68H186.265V334.154V339.634H188.55V334.154H190.842V328.68H193.13V323.203H190.842H188.55Z" fill="black"/>
<path d="M37.4562 339.634H39.7482V334.154V328.68H37.4562V334.154V339.634Z" fill="black"/>
<path d="M12.2772 317.721V323.203V328.68V334.154V339.634H14.5692V334.154V328.68H16.8542V323.203H14.5692V317.721V312.241V306.765H12.2772V312.241V317.721Z" fill="black"/>
<path d="M37.4562 323.203H35.1712V328.68H37.4562V323.203Z" fill="black"/>
<path d="M193.13 317.721V323.203H195.422V317.721V312.241V306.765H193.13V312.241V317.721Z" fill="black"/>
<path d="M9.98724 284.852V290.331V295.81V301.288V306.765H12.2772V301.288V295.81V290.331V284.852V279.377H9.98724V284.852Z" fill="black"/>
<path d="M14.5692 273.898H12.2772V279.378H14.5692V273.898Z" fill="black"/>
<path d="M140.476 169.814H142.77H145.056H147.346V164.34H145.056H142.77H140.476H138.186H135.901V169.814H138.186H140.476Z" fill="black"/>
<path d="M94.6902 175.296V169.814V164.34H92.4022H90.1142H87.8222H85.5352H83.2452V169.814H85.5352H87.8222H90.1142V175.296V180.775H87.8222H85.5352H83.2452H80.9572H78.6652H76.3802H74.0882H71.7982H69.5102H67.2202H64.9332V186.25H67.2202H69.5102H71.7982H74.0882H76.3802H78.6652H80.9572H83.2452H85.5352H87.8222H90.1142H92.4022H94.6902V180.775V175.296Z" fill="black"/>
<path d="M158.793 158.858H156.5H154.213H151.926V164.34H154.213H156.5H158.793V158.858Z" fill="black"/>
<path d="M74.0882 164.34H76.3802H78.6652V158.858H76.3802H74.0882H71.7982V164.34H74.0882Z" fill="black"/>
<path d="M163.373 158.858H165.658V153.381H163.373H161.08H158.793V158.858H161.08H163.373Z" fill="black"/>
<path d="M67.2202 158.858H69.5102H71.7982V153.381H69.5102H67.2202H64.9332V158.858H67.2202Z" fill="black"/>
<path d="M62.6402 153.381H64.9332V147.904H62.6402H60.3532V153.381H62.6402Z" fill="black"/>
<path d="M170.235 142.425H167.948V147.904H165.658V153.381H167.948H170.235V147.904H172.527V142.425V136.95H170.235V142.425Z" fill="black"/>
<path d="M129.031 131.473H131.318V125.991V120.515H129.031H126.744V125.991H124.454H122.164H119.871V131.473H122.164H124.454H126.744H129.031Z" fill="black"/>
<path d="M35.1712 120.515H37.4562H39.7482V115.035H37.4562V109.556H35.1712V115.035V120.515Z" fill="black"/>
<path d="M172.527 93.122V98.602V104.081H174.817V109.556V115.035V120.515H172.527V125.991V131.473V136.95H174.817V131.473H177.105V125.991V120.515V115.035V109.556V104.081V98.602V93.122V87.646H174.817V82.169H172.527V87.646V93.122Z" fill="black"/>
<path d="M35.1712 109.556V104.081V98.602H32.8842V93.122H35.1712V87.646V82.169H37.4562H39.7482H42.0382V87.646H44.3262V93.122H46.6132H48.9032V87.646H46.6132V82.169H44.3262V76.694H42.0382V71.212V65.733V60.256V54.779V49.302H44.3262V43.823H46.6132V38.343V32.869H44.3262V38.343H42.0382V43.823H39.7482V49.302H37.4562V54.779V60.256V65.733V71.212V76.694H35.1712H32.8842V82.169H30.5912V87.646V93.122V98.602V104.081V109.556H32.8842H35.1712Z" fill="black"/>
<path d="M170.235 82.169H172.527V76.694V71.212H170.235V76.694V82.169Z" fill="black"/>
<path d="M96.9822 65.733H99.2702H103.849V60.256H99.2702H96.9822H94.6902V65.733H96.9822Z" fill="black"/>
<path d="M83.2452 60.256H85.5352H87.8222H90.1142H92.4022H94.6902V54.779H92.4022H90.1142H87.8222H85.5352H83.2452H80.9572H78.6652V60.256H80.9572H83.2452Z" fill="black"/>
<path d="M167.948 71.212H170.235V65.733H181.683H183.975H185.121V60.256H186.265V54.779H183.975V49.302H181.683V43.823H179.395H177.105V49.302H179.395V54.779H181.683V60.256H170.235H167.948H165.658H163.373H161.08H158.793V65.733H161.08H163.373V71.212H165.658H167.948Z" fill="black"/>
<path d="M167.948 27.39H165.658H163.373V32.869H165.658H167.948H170.235V27.39H167.948Z" fill="black"/>
<path d="M51.1962 98.602H53.4852H58.0582H60.3532V93.122H58.0582H53.4852H51.1962H50.0522H48.9032V98.602H51.1962Z" fill="black"/>
<path d="M64.9332 93.122V87.646V82.169H62.6402V87.646H60.3532V93.122H62.6402H64.9332Z" fill="black"/>
<path d="M147.346 76.694H149.633H151.926H154.213H156.5H158.793H161.08H163.373V71.212H161.08H158.793H156.5H154.213H151.926H149.633H147.346H145.056V76.694H147.346Z" fill="black"/>
<path d="M117.584 76.694H119.871H122.164H124.454H126.744H129.031V71.212H131.318H133.608H135.901H145.056V65.733H135.901H133.608H131.318H129.031H126.744H124.454H122.164H119.871V71.212H117.584H115.292V76.694H117.584Z" fill="black"/>
<path d="M106.137 71.212H108.424H115.292V65.733H108.424H106.137H103.849V71.212H106.137Z" fill="black"/>
<path d="M67.2202 76.694H69.5102V71.212H71.7982H74.0882V65.733H76.3802H78.6652V60.256H76.3802H74.0882H71.7982V65.733H69.5102H67.2202V71.212H64.9332V76.694V82.169H67.2202V76.694Z" fill="black"/>
<path d="M174.817 38.343V32.869H172.527H170.235V38.343H172.527V43.823H174.817H177.105V38.343H174.817Z" fill="black"/>
<path d="M48.9032 27.39H46.6132V32.869H48.9032V27.39Z" fill="black"/>
<path d="M161.08 21.91H158.793H156.5V27.39H158.793H161.08H163.373V21.91H161.08Z" fill="black"/>
<path d="M154.213 21.91V16.433H151.926H149.633V21.91H151.926H154.213Z" fill="black"/>
<path d="M142.77 16.433H145.056H147.346V10.954H145.056H142.77H140.476H138.186V16.433H140.476H142.77Z" fill="black"/>
<path d="M71.7982 10.954H74.0882V16.433H76.3802H78.6652H80.9572H83.2452H85.5352H87.8222V10.954H85.5352H83.2452H80.9572H78.6652H76.3802V5.47897H78.6652V0H76.3802H74.0882H71.7982H69.5102V5.47897H71.7982V10.954Z" fill="black"/>
<path d="M62.6402 16.433H64.9332V10.954H62.6402H60.3532H58.0582V16.433H60.3532H62.6402Z" fill="black"/>
<path d="M67.2202 5.47897H64.9332V10.954H67.2202V5.47897Z" fill="black"/>
<path d="M51.1962 21.91H53.4852V16.433V10.954H55.7782V5.47897H53.4852H51.1962H48.9032V10.954V16.433V21.91V27.39H51.1962V21.91Z" fill="black"/>
<path d="M94.6902 10.954H96.9822H99.2702H101.56H103.849H119.871H120.875H122.164H124.454H126.744H129.031H131.318H133.608H135.901V5.47897H133.608H131.318H129.031H126.744H124.454H122.164H120.875H119.871H103.849H101.56H99.2702H96.9822H94.6902H92.4022H90.1142V10.954H92.4022H94.6902Z" fill="black"/>
<path d="M237.467 263.977L233.203 265.812L234.218 268.171L238.483 266.335L237.467 263.977Z" fill="#565D5F"/>
<path d="M233.266 265.829L228.998 267.664L230.013 270.023L234.28 268.187L233.266 265.829Z" fill="#4D5556"/>
<path d="M228.95 267.672L224.687 269.505L225.701 271.864L229.964 270.03L228.95 267.672Z" fill="#444C4C"/>
<path d="M224.693 269.49L220.427 271.328L221.444 273.688L225.71 271.85L224.693 269.49Z" fill="#3A4243"/>
<path d="M220.417 271.366L216.149 273.2L217.164 275.562L221.432 273.728L220.417 271.366Z" fill="#2F3737"/>
<path d="M216.202 273.167L211.936 274.997L212.949 277.357L217.215 275.527L216.202 273.167Z" fill="#282F2F"/>
<path d="M211.854 275.038L207.586 276.874L208.601 279.231L212.868 277.395L211.854 275.038Z" fill="#1A2120"/>
<path d="M207.567 276.815L203.306 278.652L204.323 281.01L208.584 279.173L207.567 276.815Z" fill="#222122"/>
<path d="M240.676 259.79L236.408 261.62L237.42 263.982L241.688 262.152L240.676 259.79Z" fill="#575E60"/>
<path d="M236.466 261.644L232.2 263.482L233.216 265.841L237.482 264.003L236.466 261.644Z" fill="#575E60"/>
<path d="M232.19 263.474L227.924 265.309L228.94 267.669L233.205 265.833L232.19 263.474Z" fill="#575E60"/>
<path d="M227.951 265.31L223.686 267.143L224.7 269.504L228.965 267.671L227.951 265.31Z" fill="#575E60"/>
<path d="M223.686 267.167L219.418 268.999L220.432 271.36L224.699 269.527L223.686 267.167Z" fill="#575E60"/>
<path d="M219.391 268.955L215.126 270.791L216.141 273.149L220.406 271.313L219.391 268.955Z" fill="#575E60"/>
<path d="M215.104 270.845L210.839 272.68L211.855 275.04L216.12 273.205L215.104 270.845Z" fill="#575E60"/>
<path d="M210.874 272.582L206.606 274.416L207.62 276.775L211.888 274.941L210.874 272.582Z" fill="#575E60"/>
<path d="M206.566 274.477L202.304 276.313L203.32 278.673L207.583 276.837L206.566 274.477Z" fill="#575E60"/>
<path d="M202.334 276.307L198.066 278.143L199.082 280.505L203.35 278.669L202.334 276.307Z" fill="#575E60"/>
<path d="M198.035 278.15L193.769 279.98L194.782 282.342L199.048 280.512L198.035 278.15Z" fill="#575E60"/>
<path d="M193.813 279.984L189.548 281.822L190.564 284.179L194.829 282.342L193.813 279.984Z" fill="#575E60"/>
<path d="M189.51 281.853L185.243 283.688L186.259 286.048L190.525 284.213L189.51 281.853Z" fill="#575E60"/>
<path d="M185.315 283.648L181.048 285.481L182.061 287.84L186.329 286.008L185.315 283.648Z" fill="#575E60"/>
<path d="M180.98 285.514L176.715 287.349L177.73 289.708L181.995 287.873L180.98 285.514Z" fill="#575E60"/>
<path d="M176.71 287.353L172.443 289.189L173.459 291.551L177.726 289.715L176.71 287.353Z" fill="#575E60"/>
<path d="M172.429 289.147L168.165 290.981L169.181 293.342L173.444 291.509L172.429 289.147Z" fill="#575E60"/>
<path d="M168.187 290.955L163.917 292.788L164.93 295.148L169.2 293.315L168.187 290.955Z" fill="#565D5F"/>
<path d="M163.955 292.843L159.688 294.68L160.703 297.036L164.969 295.199L163.955 292.843Z" fill="#505759"/>
<path d="M159.641 294.68L155.378 296.515L156.393 298.873L160.656 297.038L159.641 294.68Z" fill="#464E4F"/>
<path d="M155.389 296.536L151.122 298.371L152.138 300.732L156.404 298.897L155.389 296.536Z" fill="#3D4445"/>
<path d="M151.158 298.343L146.894 300.179L147.91 302.541L152.175 300.705L151.158 298.343Z" fill="#333A3A"/>
<path d="M146.854 300.19L142.587 302.025L143.603 304.388L147.87 302.552L146.854 300.19Z" fill="#282F2F"/>
<path d="M142.629 302.012L138.364 303.845L139.379 306.207L143.644 304.375L142.629 302.012Z" fill="#1B2322"/>
<path d="M138.313 303.853L134.048 305.685L135.062 308.048L139.328 306.215L138.313 303.853Z" fill="#252526"/>
<path d="M243.979 255.625L239.71 257.461L240.724 259.819L244.993 257.983L243.979 255.625Z" fill="#575E60"/>
<path d="M239.684 257.456L235.421 259.291L236.437 261.65L240.699 259.815L239.684 257.456Z" fill="#575E60"/>
<path d="M235.502 259.271L231.233 261.106L232.249 263.468L236.517 261.633L235.502 259.271Z" fill="#575E60"/>
<path d="M231.156 261.139L226.891 262.974L227.907 265.336L232.172 263.501L231.156 261.139Z" fill="#575E60"/>
<path d="M226.894 262.899L222.629 264.73L223.642 267.091L227.908 265.261L226.894 262.899Z" fill="#575E60"/>
<path d="M222.626 264.763L218.36 266.6L219.376 268.959L223.642 267.121L222.626 264.763Z" fill="#575E60"/>
<path d="M218.339 266.609L214.072 268.444L215.087 270.803L219.353 268.968L218.339 266.609Z" fill="#575E60"/>
<path d="M214.133 268.463L209.868 270.296L210.881 272.655L215.146 270.822L214.133 268.463Z" fill="#575E60"/>
<path d="M209.842 270.266L205.578 272.102L206.593 274.46L210.858 272.624L209.842 270.266Z" fill="#575E60"/>
<path d="M202.333 276.302L206.598 274.469L205.58 272.109L201.312 273.944L202.333 276.302Z" fill="#575E60"/>
<path d="M104.219 318.499L108.485 316.669L107.469 314.309L103.204 316.139L104.219 318.499Z" fill="#575E60"/>
<path d="M103.178 316.178L98.9113 318.017L99.9287 320.377L104.195 318.538L103.178 316.178Z" fill="#575E60"/>
<path d="M98.9383 318.002L94.6723 319.832L95.6856 322.194L99.9516 320.364L98.9383 318.002Z" fill="#575E60"/>
<path d="M94.6426 319.851L90.3757 321.686L91.391 324.046L95.6579 322.211L94.6426 319.851Z" fill="#444C4C"/>
<path d="M247.246 251.403L242.983 253.236L243.996 255.593L248.26 253.76L247.246 251.403Z" fill="#4A5253"/>
<path d="M242.995 253.236L238.728 255.073L239.744 257.432L244.011 255.594L242.995 253.236Z" fill="#575E60"/>
<path d="M238.652 255.081L234.386 256.912L235.399 259.272L239.665 257.441L238.652 255.081Z" fill="#575E60"/>
<path d="M234.42 256.953L230.155 258.787L231.168 261.144L235.434 259.31L234.42 256.953Z" fill="#575E60"/>
<path d="M230.144 258.78L225.878 260.616L226.892 262.974L231.158 261.138L230.144 258.78Z" fill="#575E60"/>
<path d="M225.928 260.578L221.661 262.412L222.675 264.771L226.942 262.938L225.928 260.578Z" fill="#575E60"/>
<path d="M76.5677 324.826L72.3017 326.662L73.3158 329.019L77.5818 327.183L76.5677 324.826Z" fill="#29302D"/>
<path d="M59.5464 332.152L55.2794 333.986L56.2941 336.347L60.561 334.514L59.5464 332.152Z" fill="#1C1F1D"/>
<path d="M55.2385 333.998L50.9753 335.833L51.9901 338.192L56.2534 336.357L55.2385 333.998Z" fill="#403829"/>
<path d="M12.5777 352.343L8.31268 354.178L9.32794 356.538L13.593 354.703L12.5777 352.343Z" fill="#252526"/>
<path d="M250.461 247.194L246.193 249.033L247.21 251.393L251.478 249.555L250.461 247.194Z" fill="#1B2322"/>
<path d="M246.203 249.013L241.94 250.846L242.955 253.208L247.218 251.375L246.203 249.013Z" fill="#575E60"/>
<path d="M242.004 250.882L237.736 252.717L238.752 255.079L243.019 253.244L242.004 250.882Z" fill="#575E60"/>
<path d="M237.65 252.747L233.383 254.58L234.397 256.941L238.664 255.108L237.65 252.747Z" fill="#575E60"/>
<path d="M249.491 244.877L245.224 246.714L246.239 249.074L250.507 247.238L249.491 244.877Z" fill="#575E60"/>
<path d="M245.188 246.678L240.924 248.51L241.938 250.871L246.202 249.039L245.188 246.678Z" fill="#575E60"/>
<path d="M100.209 309.085L95.9441 310.915L96.9558 313.273L101.221 311.442L100.209 309.085Z" fill="#454D4E"/>
<path d="M73.5551 317.728L69.2892 319.566L70.3054 321.925L74.5713 320.087L73.5551 317.728Z" fill="#533C24"/>
<path d="M247.415 240.169L243.147 242.005L244.161 244.363L248.429 242.527L247.415 240.169Z" fill="#1B2322"/>
<path d="M92.6285 315.075L88.364 316.915L89.3817 319.273L93.6462 317.432L92.6285 315.075Z" fill="#6D3E20"/>
<path d="M69.2832 319.546L68.2702 317.187L64.0042 319.02L59.7362 320.855L55.4682 322.692L56.4862 325.052L57.5002 327.41L58.5152 329.768L59.5292 332.127L60.5462 334.49L64.8142 332.655L69.0772 330.82L68.0622 328.462L72.3272 326.627L71.3122 324.266L75.5802 322.431L74.5642 320.069L70.2992 321.907L69.2832 319.546Z" fill="#6D3E20"/>
<path d="M42.6772 328.198L38.4062 330.026L34.1412 331.864L35.1572 334.222L36.1742 336.584L37.1832 338.944L38.1982 341.302L39.2172 343.664L43.4792 341.829L47.7452 339.991L52.0152 338.158L51.0022 335.799L55.2632 333.965L54.2492 331.603L53.2392 329.243L52.2192 326.885L51.2052 324.525L46.9372 326.361L42.6772 328.198Z" fill="#6D3E20"/>
<path d="M21.3472 337.367L17.0792 339.201L18.0952 341.561L19.1052 343.921L20.1232 346.278L21.1392 348.643L22.1522 351.001L26.4202 349.168L30.6852 347.33L34.9492 345.495L33.9332 343.137L32.9222 340.777L31.9072 338.415L30.8932 336.057L29.8732 333.697L25.6072 335.532L21.3472 337.367Z" fill="#6D3E20"/>
<path d="M4.26414 344.761L0 346.593L1.01423 348.954L5.27837 347.121L4.26414 344.761Z" fill="#252526"/>
<path d="M90.6082 310.372L89.5992 308.01L85.3342 309.847L84.3132 307.488L80.0532 309.323L75.7852 311.158L76.8002 313.516L77.8162 315.876L78.8292 318.239L79.8432 320.596L75.5802 322.431L76.5932 324.791L77.6062 327.149L78.6242 329.511L79.6372 331.869L80.6552 334.229L81.6662 336.586L82.6842 338.949L83.6992 341.309L79.4322 343.145L80.4472 345.507L81.4632 347.86L77.1972 349.695L78.2102 352.058L79.2262 354.415L80.2392 356.775L81.2552 359.137L82.2732 361.498L83.2812 363.855L84.3022 366.218L85.3152 368.575L89.5782 366.735L93.8482 364.905L92.8332 362.547L97.0982 360.712L96.0802 358.352L95.0672 355.989L94.0512 353.632L93.0362 351.274L92.0252 348.912L91.0092 346.551L89.9892 344.192L88.9782 341.831L87.9652 339.479L86.9472 337.116L85.9312 334.756L84.9212 332.394L83.9022 330.034L82.8872 327.676L87.1552 325.841L86.1392 323.483L90.4052 321.645L89.3912 319.283L88.3742 316.925L92.6422 315.09L91.6232 312.732L95.8942 310.897L94.8782 308.54L90.6082 310.372Z" fill="#EE9031"/>
<path d="M11.8495 338.698L7.5849 340.532L8.59992 342.892L12.8645 341.058L11.8495 338.698Z" fill="#222122"/>
<path d="M235.86 236.715L231.598 238.553L232.615 240.913L236.878 239.075L235.86 236.715Z" fill="#1F2626"/>
<path d="M180.385 260.619L176.118 262.453L177.133 264.813L181.4 262.979L180.385 260.619Z" fill="#C5C9CF"/>
<path d="M129.184 282.63L124.919 284.465L125.933 286.821L130.198 284.986L129.184 282.63Z" fill="#586062"/>
<path d="M124.922 284.456L120.657 286.291L121.672 288.65L125.937 286.815L124.922 284.456Z" fill="#464E4F"/>
<path d="M120.653 286.299L116.387 288.134L117.401 290.492L121.667 288.657L120.653 286.299Z" fill="#333A3A"/>
<path d="M113.161 292.285L117.429 290.45L116.414 288.094L112.144 289.928L113.161 292.285Z" fill="#1A2120"/>
<path d="M230.552 236.239L226.287 238.074L227.303 240.434L231.567 238.599L230.552 236.239Z" fill="#424A4A"/>
<path d="M244.18 244.323L243.164 241.965L242.149 239.607L237.883 241.438L236.87 239.078L232.607 240.916L233.618 243.275L234.631 245.63L230.37 247.468L226.102 249.304L221.839 251.137L217.574 252.974L213.306 254.805L214.322 257.167L210.054 258.998L205.788 260.833L201.523 262.669L197.257 264.504L192.992 266.339L188.724 268.174L184.458 270.012L180.193 271.843L175.925 273.683L171.662 275.513L167.399 277.346L163.131 279.179L158.865 281.019L154.6 282.85L150.33 284.688L146.064 286.523L141.803 288.358L137.536 290.191L133.273 292.024L129.005 293.859L124.739 295.695L120.471 297.527L116.206 299.368L111.94 301.195L107.675 303.031L103.409 304.866L99.1462 306.704L100.159 309.067L101.17 311.424L96.9042 313.255L97.9232 315.617L93.6572 317.448L94.6722 319.81L98.9382 317.977L103.204 316.139L107.469 314.309L108.485 316.669L112.75 314.834L117.016 312.998L121.284 311.161L125.544 309.33L129.81 307.495L134.08 305.654L138.346 303.824L142.609 301.989L146.876 300.153L151.142 298.318L155.408 296.485L159.673 294.653L163.939 292.817L168.204 290.979L172.469 289.144L176.737 287.308L181.003 285.478L185.268 283.643L189.536 281.807L193.802 279.972L198.063 278.137L202.333 276.302L201.312 273.944L205.58 272.114L209.848 270.276L214.111 268.44L218.379 266.608L222.644 264.767L221.629 262.41L225.897 260.574L230.165 258.741L234.428 256.906L233.414 254.548L237.68 252.711L241.946 250.875L240.93 248.516L245.198 246.682L249.461 244.845L248.446 242.487L244.18 244.323Z" fill="#7B8387"/>
<path d="M92.8679 303.766L88.6028 305.595L89.6155 307.956L93.8806 306.126L92.8679 303.766Z" fill="#7B8387"/>
<path d="M87.5708 303.335L83.3011 305.17L84.3142 307.528L88.5838 305.693L87.5708 303.335Z" fill="#7B8387"/>
<path d="M231.593 238.604L227.326 240.438L228.34 242.798L232.608 240.964L231.593 238.604Z" fill="#7B8387"/>
<path d="M138.757 281.276L143.02 279.443L147.287 277.605L151.553 275.772L155.819 273.941L160.084 272.106L164.35 270.268L168.618 268.436L172.883 266.598L177.148 264.762L176.135 262.403L171.87 264.24L167.602 266.076L163.337 267.911L159.071 269.746L154.803 271.582L150.538 273.412L146.277 275.247L142.006 277.083L137.741 278.918L133.478 280.751L129.21 282.591L130.226 284.944L134.491 283.111L138.757 281.276Z" fill="#7B8387"/>
<path d="M222.043 239.864L217.777 241.701L213.509 243.532L209.244 245.367L204.978 247.202L200.712 249.038L196.447 250.873L192.184 252.704L193.197 255.066L197.463 253.231L201.726 251.398L205.993 249.56L210.259 247.725L214.53 245.896L218.795 244.059L223.06 242.221L227.324 240.388L226.31 238.028L222.043 239.864Z" fill="#7B8387"/>
<path d="M188.932 256.901L193.197 255.066L192.184 252.704L187.918 254.539L188.932 256.901Z" fill="#555C5E"/>
<path d="M187.893 254.585L183.627 256.421L184.642 258.781L188.909 256.946L187.893 254.585Z" fill="#424A4A"/>
<path d="M183.661 256.33L179.394 258.16L180.406 260.519L184.673 258.689L183.661 256.33Z" fill="#2E3535"/>
<path d="M179.407 258.226L175.142 260.063L176.157 262.419L180.422 260.583L179.407 258.226Z" fill="#1B2322"/>
<path d="M74.3562 331.342L70.0932 333.179L71.1042 335.542L72.1192 337.9L73.1322 340.257L74.1532 342.615L75.1662 344.978L76.1812 347.337L77.1972 349.695L81.4632 347.86L80.4472 345.507L79.4322 343.145L83.6992 341.309L82.6842 338.949L81.6662 336.586L80.6552 334.229L79.6372 331.869L78.6242 329.511L77.6062 327.149L73.3402 328.987L74.3562 331.342Z" fill="#FBCB29"/>
<path d="M4.2782 344.707L5.29822 347.066L6.31219 349.427L7.3252 351.784L8.34021 354.144L12.6062 352.314L13.6212 354.671L17.8872 352.836L16.8742 350.478L15.8582 348.116L14.8422 345.756L13.8252 343.398L12.8162 341.036L8.54822 342.871L4.2782 344.707Z" fill="#FBCB29"/>
<path d="M74.7692 308.796L73.7542 306.436L72.7382 304.081L71.7252 301.72L70.7102 299.36L69.6942 297L68.6762 294.64L67.6652 292.28L66.6492 289.92L65.6372 287.562L64.6232 285.2L63.6082 282.84L62.5892 280.48L61.5742 278.118L57.3082 279.953L56.2932 277.598L52.0272 279.43L47.7652 281.268L48.7822 283.623L49.7912 285.988L50.8062 288.346L51.8222 290.704L52.8382 293.064L53.8532 295.426L54.8682 297.786L55.8822 300.144L56.8982 302.506L57.9162 304.864L58.9262 307.221L59.9402 309.582L60.9602 311.944L61.9732 314.301L62.9842 316.659L67.2542 314.826L68.2702 317.187L72.5352 315.353L73.5512 317.711L77.8162 315.876L76.8002 313.516L75.7852 311.158L80.0532 309.323L79.0352 306.96L74.7692 308.796Z" fill="#FBCB29"/>
<path d="M55.3019 275.256L51.0341 277.09L52.0471 279.447L56.3149 277.614L55.3019 275.256Z" fill="#CEB251"/>
<path d="M51.0148 277.077L46.7512 278.915L47.7674 281.272L52.0311 279.434L51.0148 277.077Z" fill="#232B29"/>
<path d="M83.2812 363.855L82.2732 361.497L81.2552 359.137L80.2392 356.775L79.2262 354.415L78.2102 352.058L77.1972 349.695L76.1812 347.337L75.1662 344.977L74.1532 342.614L73.1322 340.256L72.1192 337.899L71.1042 335.541L70.0932 333.178L74.3562 331.341L73.3402 328.986L72.3272 326.626L68.0622 328.461L69.0782 330.819L64.8152 332.654L60.5472 334.489L56.2822 336.322L52.0172 338.157L47.7472 339.99L43.4812 341.828L39.2182 343.663L38.2002 341.301L37.1842 338.943L36.1762 336.583L35.1582 334.221L34.1422 331.863L38.4072 330.025L42.6772 328.197L46.9382 326.359L51.2062 324.524L52.2192 326.884L53.2392 329.242L54.2502 331.602L55.2632 333.964L59.5292 332.126L58.5162 329.766L57.5002 327.408L56.4872 325.05L55.4692 322.69L59.7372 320.852L64.0052 319.017L68.2702 317.184L67.2542 314.824L62.9842 316.657L61.9732 314.299L60.9602 311.942L59.9402 309.579L58.9272 307.219L57.9162 304.862L56.8982 302.504L55.8822 300.141L54.8692 297.784L53.8542 295.424L52.8382 293.062L51.8222 290.702L50.8062 288.344L49.7902 285.986L48.7822 283.621L47.7642 281.266L46.7482 278.906L42.4832 280.736L43.4962 283.096L44.5142 285.456L45.5302 287.816L46.5432 290.176L47.5562 292.536L48.5722 294.896L49.5872 297.256L50.6032 299.619L51.6162 301.977L52.6322 304.334L53.6452 306.697L54.6582 309.057L55.6782 311.415L56.6912 313.773L57.7092 316.138L53.4412 317.971L49.1732 319.804L44.9082 321.639L40.6432 323.474L36.3782 325.311L32.1122 327.141L27.8472 328.981L23.5842 330.811L19.3142 332.646L15.0532 334.481L10.7832 336.316L6.51825 338.151L2.25525 339.984L3.27124 342.346L4.27924 344.704L8.54922 342.869L7.53622 340.509L11.7972 338.676L12.8172 341.034L13.8262 343.396L14.8442 345.754L15.8602 348.114L16.8762 350.476L17.8892 352.834L13.6232 354.669L9.35825 356.504L10.3712 358.862L14.6392 357.027L18.9042 355.194L23.1702 353.357L27.4352 351.526L31.7002 349.691L35.9682 347.851L40.2342 346.021L44.4992 344.186L48.7672 342.351L53.0282 340.516L57.2932 338.686L61.5632 336.848L65.8282 335.015L66.8392 337.372L67.8552 339.735L68.8712 342.092L69.8872 344.452L70.9022 346.815L71.9182 349.172L72.9312 351.532L73.9472 353.89L74.9602 356.247L75.9762 358.61L76.9912 360.968L78.0092 363.328L79.0222 365.691L80.0332 368.049L81.0532 370.409L85.3162 368.576L84.3032 366.218L83.2812 363.855ZM30.6852 347.33L26.4202 349.168L22.1522 351.001L21.1392 348.643L20.1232 346.278L19.1052 343.92L18.0942 341.56L17.0782 339.2L21.3462 337.367L25.6062 335.532L29.8722 333.697L30.8922 336.057L31.9052 338.415L32.9212 340.777L33.9322 343.137L34.9482 345.495L30.6852 347.33Z" fill="black"/>
<path d="M241.743 262.154L237.472 263.984L238.486 266.344L234.222 268.179L229.954 270.015L225.694 271.848L221.426 273.685L217.155 275.521L212.89 277.351L208.625 279.186L204.364 281.024L203.349 278.664L199.083 280.499L194.815 282.33L190.549 284.168L186.284 286.003L182.016 287.836L177.75 289.671L173.485 291.506L169.224 293.339L164.954 295.172L160.686 297.01L156.423 298.845L152.155 300.68L147.892 302.516L143.627 304.351L139.361 306.184L135.095 308.017L134.08 305.654L129.81 307.495L125.544 309.33L121.284 311.161L117.016 312.998L112.75 314.834L108.485 316.669L104.219 318.499L99.9522 320.34L95.6862 322.17L91.4202 324.005L90.4052 321.645L86.1392 323.483L87.1552 325.841L82.8872 327.676L83.9022 330.034L84.9212 332.394L85.9312 334.756L86.9472 337.116L87.9652 339.479L88.9782 341.831L89.9892 344.192L91.0092 346.551L92.0252 348.912L93.0362 351.274L94.0512 353.632L95.0672 355.989L96.0802 358.352L97.0982 360.712L92.8332 362.547L93.8482 364.905L89.5782 366.735L85.3152 368.575L86.3302 370.936L90.5962 369.098L94.8642 367.265L99.1292 365.427L98.1142 363.07L102.379 361.239L101.361 358.876L100.348 356.519L99.3332 354.159L98.3172 351.796L97.3042 349.439L96.2882 347.079L95.2722 344.716L94.2592 342.359L93.2462 339.999L92.2262 337.638L91.2172 335.279L90.2022 332.921L89.1832 330.558L93.4492 328.725L97.7172 326.893L101.982 325.057L106.248 323.219L110.514 321.389L114.779 319.554L119.047 317.714L123.31 315.881L127.576 314.048L131.841 312.213L136.109 310.377L140.377 308.544L144.642 306.711L148.908 304.869L153.168 303.038L157.437 301.205L161.702 299.368L165.97 297.532L170.235 295.702L174.501 293.867L178.766 292.031L183.032 290.196L187.297 288.361L191.565 286.527L195.828 284.692L196.846 287.052L201.112 285.217L205.377 283.382L209.643 281.549L213.908 279.714L218.171 277.88L222.437 276.043L226.707 274.207L230.973 272.377L235.24 270.542L239.503 268.704L243.767 266.871L242.753 264.511L247.016 262.678L246.003 260.318L244.99 257.956L240.722 259.791L241.743 262.154Z" fill="black"/>
<path d="M248.247 253.713L243.981 255.543L244.995 257.906L249.261 256.076L248.247 253.713Z" fill="black"/>
<path d="M251.502 249.557L247.238 251.395L248.254 253.752L252.518 251.913L251.502 249.557Z" fill="black"/>
<path d="M93.7114 317.464L89.4441 319.299L90.4599 321.661L94.7273 319.826L93.7114 317.464Z" fill="black"/>
<path d="M75.5744 322.442L71.3075 324.278L72.3228 326.638L76.5897 324.802L75.5744 322.442Z" fill="black"/>
<path d="M7.32523 351.784L6.31223 349.427L5.29825 347.066L1.03223 348.9L2.04324 351.259L3.06125 353.622L4.07523 355.979L5.08823 358.34L9.35623 356.507L8.34024 354.144L7.32523 351.784Z" fill="black"/>
<path d="M92.6422 315.09L93.6572 317.448L97.9232 315.617L96.9042 313.255L95.8942 310.897L91.6232 312.732L92.6422 315.09Z" fill="black"/>
<path d="M75.5802 322.431L79.8432 320.596L78.8292 318.239L77.8162 315.876L73.5512 317.711L74.5642 320.069L75.5802 322.431Z" fill="black"/>
<path d="M99.1263 306.719L94.858 308.549L95.8698 310.909L100.138 309.079L99.1263 306.719Z" fill="black"/>
<path d="M247.435 240.13L248.446 242.487L249.461 244.845L250.477 247.207L251.492 249.567L255.758 247.732L254.745 245.374L253.732 243.014L252.711 240.652L251.698 238.292L247.435 240.13Z" fill="black"/>
<path d="M94.8782 308.54L93.8602 306.179L89.5992 308.01L90.6082 310.372L94.8782 308.54Z" fill="black"/>
<path d="M72.5041 315.359L68.239 317.196L69.2549 319.554L73.52 317.717L72.5041 315.359Z" fill="black"/>
<path d="M246.381 237.793L242.112 239.632L243.129 241.992L247.397 240.153L246.381 237.793Z" fill="black"/>
<path d="M88.6134 305.639L84.3488 307.48L85.3672 309.839L89.6318 307.998L88.6134 305.639Z" fill="black"/>
<path d="M240.12 234.885L235.855 236.72L236.87 239.078L237.883 241.438L242.149 239.607L241.136 237.245L240.12 234.885Z" fill="black"/>
<path d="M234.858 234.31L230.593 236.146L231.609 238.507L235.874 236.671L234.858 234.31Z" fill="black"/>
<path d="M225.292 235.671L221.029 237.501L216.764 239.339L212.496 241.174L208.23 243.007L203.963 244.845L199.697 246.678L195.431 248.511L191.164 250.343L186.903 252.181L182.635 254.017L183.651 256.377L187.918 254.539L192.184 252.704L196.447 250.873L200.712 249.038L204.978 247.202L209.244 245.367L213.509 243.532L217.777 241.701L222.043 239.864L226.31 238.028L230.573 236.193L229.56 233.838L225.292 235.671Z" fill="black"/>
<path d="M55.2842 275.237L56.2932 277.598L57.3082 279.953L61.5742 278.118L62.5892 280.48L63.6082 282.84L64.6232 285.2L65.6372 287.562L66.6492 289.92L67.6652 292.28L68.6762 294.64L69.6942 297L70.7102 299.36L71.7252 301.72L72.7382 304.081L73.7542 306.436L74.7692 308.796L79.0352 306.96L80.0532 309.323L84.3132 307.488L83.3002 305.13L87.5712 303.295L91.8362 301.459L96.0972 299.624L100.363 297.789L104.628 295.955L108.896 294.12L113.161 292.285L112.144 289.928L116.414 288.094L120.679 286.255L124.944 284.421L129.21 282.591L133.478 280.751L137.741 278.918L142.006 277.083L146.277 275.247L150.538 273.412L154.803 271.582L159.071 269.746L163.337 267.911L167.602 266.076L171.87 264.24L176.135 262.403L175.12 260.045L170.854 261.88L166.589 263.713L162.321 265.548L158.055 267.384L153.79 269.219L149.524 271.054L145.256 272.89L140.996 274.725L136.725 276.556L132.46 278.391L128.195 280.229L123.931 282.062L119.666 283.897L115.398 285.735L111.133 287.565L106.867 289.398L102.599 291.233L98.3362 293.071L94.0712 294.906L89.8002 296.737L85.5372 298.575L81.2722 300.408L77.0082 302.243L75.9912 299.885L74.9752 297.522L73.9622 295.163L72.9462 292.8L71.9312 290.447L70.9182 288.085L69.9042 285.727L68.8842 283.369L67.8732 281.005L66.8572 278.647L65.8422 276.287L64.8262 273.929L60.5592 275.76L59.5452 273.402L58.5322 271.04L54.2642 272.88L49.9982 274.71L45.7332 276.546L46.7492 278.908L51.0142 277.073L55.2842 275.237Z" fill="black"/>
<path d="M223.06 242.221L218.795 244.059L214.53 245.896L210.259 247.725L205.993 249.56L201.726 251.398L197.463 253.231L193.197 255.066L188.932 256.901L184.666 258.736L180.398 260.567L181.416 262.927L177.148 264.762L172.883 266.598L168.618 268.436L164.35 270.268L160.084 272.106L155.819 273.941L151.553 275.772L147.287 277.605L143.02 279.443L138.757 281.276L134.491 283.111L130.226 284.944L125.96 286.779L121.695 288.614L117.429 290.45L113.161 292.285L108.896 294.12L104.628 295.955L100.363 297.789L96.0972 299.624L91.8362 301.459L87.5712 303.295L88.5822 305.652L92.8472 303.817L93.8602 306.179L94.8782 308.54L99.1462 306.704L103.409 304.866L107.675 303.031L111.94 301.195L116.206 299.368L120.471 297.527L124.739 295.695L129.005 293.859L133.273 292.024L137.536 290.191L141.803 288.358L146.064 286.523L150.33 284.688L154.6 282.85L158.865 281.019L163.131 279.179L167.399 277.346L171.662 275.513L175.925 273.683L180.193 271.843L184.458 270.012L188.724 268.174L192.992 266.339L197.257 264.504L201.523 262.669L205.788 260.833L210.054 258.998L214.322 257.167L213.306 254.805L217.574 252.974L221.839 251.137L226.102 249.304L230.37 247.468L234.631 245.63L233.618 243.275L232.607 240.916L228.337 242.746L227.324 240.388L223.06 242.221Z" fill="white"/>
<path d="M21.8482 273.898H16.8542V279.377H21.8482H26.8312V284.852H28.3042H29.1212H30.5912V279.377H29.1212H28.3042H26.8312V273.898H21.8482Z" fill="black"/>
<path d="M39.7482 273.898H37.4562V279.377H35.1712H32.8842H30.5912V284.852H32.8842H35.1712V290.331V295.81H32.8842V301.288V306.765H30.5912V312.241V317.721V323.203H32.8842H35.1712V317.721V312.241V306.765V301.288H37.4562V295.81V290.331V284.852H39.7482V279.377H42.0382V273.898V268.421H39.7482V273.898Z" fill="black"/>
<path d="M30.5912 350.59H28.3042H26.0112V356.064H28.3042H30.5912H32.8842H35.1712V350.59H32.8842H30.5912Z" fill="black"/>
<path d="M37.4562 345.11H35.1712V350.59H37.4562V345.11Z" fill="black"/>
<path d="M19.1442 350.59H21.4322H23.7192V345.11H21.4322H19.1442H16.8542V350.59H19.1442Z" fill="black"/>
<path d="M16.8552 339.634H14.5692V345.111H16.8552V339.634Z" fill="black"/>
<path d="M35.1712 334.154H32.8842V339.634V345.11H35.1712V339.634V334.154Z" fill="black"/>
<path d="M37.4562 339.634H39.7482V334.154V328.68H37.4562V334.154V339.634Z" fill="black"/>
<path d="M12.2772 317.721V323.203V328.68V334.154V339.634H14.5692V334.154V328.68H16.8542V323.203H14.5692V317.721V312.241V306.765H12.2772V312.241V317.721Z" fill="black"/>
<path d="M37.4562 323.203H35.1712V328.68H37.4562V323.203Z" fill="black"/>
<path d="M9.98724 284.852V290.331V295.81V301.288V306.765H12.2772V301.288V295.81V290.331V284.852V279.377H9.98724V284.852Z" fill="black"/>
<path d="M35.1712 323.203H32.8842H30.5912V317.721V312.241V306.765H32.8842V301.288V295.81H35.1712V290.331V284.852H32.8842H30.5912H28.3042V279.377H26.0112H23.7192H21.4322H19.1442H16.8572V273.898H14.5692V279.377H12.2772V284.852V290.331V295.81V301.288V306.765H14.5692V312.241V317.721V323.203H16.8572V328.68H14.5692V334.154V339.634H16.8572V345.11H19.1442H21.4322H23.7192V350.59H26.0112H28.3042H30.5912H32.8842H35.1712V345.11H32.8842V339.634V334.154H35.1712V339.634H37.4592V334.154V328.68H35.1712V323.203Z" fill="#F2B391"/>
</svg>
