<svg width="369" height="232" viewBox="0 0 369 232" fill="none" xmlns="http://www.w3.org/2000/svg">
<path d="M102.199 46.356H97.177V52.135H102.199V46.356Z" fill="#8D632A"/>
<path d="M328.385 40.567H323.362V46.356H328.385V40.567Z" fill="#986C2A"/>
<path d="M112.259 40.567H107.222V46.356H112.259V40.567Z" fill="#754E27"/>
<path d="M353.528 34.788H348.489V40.567H353.528V34.788Z" fill="#F7CB59"/>
<path d="M313.303 29.009H308.28V34.788H313.303V29.009Z" fill="#BA892C"/>
<path d="M343.468 57.929V52.135H338.443V46.356H333.424H328.385H323.362V40.567H318.34V34.788H313.303H308.28V29.009H303.258H298.236V23.215H293.199V17.441H288.176H283.154H278.132H273.095H268.073H263.05H258.013H252.989H247.969H242.944H237.91H232.885H227.864H222.84H217.803H212.781H207.759H202.736H197.699H192.677H187.655H182.618H177.596H172.573H167.551H162.514H157.491H152.469H147.447H142.41V23.215H137.385V29.009H132.365H127.34V34.788H122.303H117.281V40.567H112.259V46.356H107.222H102.199V52.135H97.177H92.155V57.929H87.118V63.704V69.483V75.276V81.056V86.849V92.624V98.403V104.196V109.976V115.76V121.544V127.323V133.117V138.896V144.68V150.464V156.243V162.037V167.811V173.6V179.384V185.163V190.952V196.732V202.52V208.304V214.079H92.155H97.177H102.199H107.222H112.259H117.281H122.303H127.34H132.365H137.385H142.41H147.447H152.469H157.491H162.514H167.551H172.573H177.596H182.618H187.655H192.677H197.699H202.736H207.759H212.781H217.803H222.84H227.864H232.885H237.91H242.944H247.969H252.989H258.013H263.05H268.073H273.095H278.132H283.154H288.176H293.199H298.236H303.258H308.28H313.303H318.34H323.362H328.385H333.424H338.443H343.468H348.489V208.304V202.52V196.732V190.952V185.163V179.384V173.6V167.811V162.037V156.243V150.464V144.68V138.896V133.117V127.323V121.544V115.76V109.976V104.196V98.403H343.468H338.443H333.424H328.385H323.362H318.34H313.303H308.28H303.258H298.236H293.199H288.176V92.624V86.849H293.199H298.236H303.258H308.28H313.303H318.34H323.362H328.385H333.424H338.443H343.468H348.489V81.056V75.276V69.483V63.704V57.929H343.468Z" fill="#593820"/>
<path d="M112.259 17.441H107.222V23.215H112.259V17.441Z" fill="#FAE6B5"/>
<path d="M313.303 11.647V17.441H318.34" fill="#FBEAC4"/>
<path d="M363.572 46.356H358.547V40.567H353.527H348.488V34.788H343.468V29.009H338.443H333.423V23.215H328.384H323.361V17.441H318.339H313.302V11.647H308.279V5.86804H303.257H298.234V0.0840454H293.197H288.175H283.153H278.13H273.093H268.071H263.049H258.012H252.987H247.967H242.942H237.908H232.883H227.863H222.839H217.802H212.779H207.757H202.735H197.698H192.676H187.654H182.617H177.595H172.572H167.55H162.513H157.491H152.469H147.447H142.41H137.385V5.86804H132.365H127.34V11.647H122.303V17.441H117.281H112.258V23.215H107.221H102.198V29.009H97.176H92.1541V34.788H87.1171H82.095V40.567H77.072V46.356H72.05H67.0131V52.135V57.929V63.703V69.482V75.276V81.055V86.849V92.623V98.402V104.196V109.975V115.759V121.543V127.322V133.116V138.895V144.679V150.463V156.242V162.036V167.81V173.599V179.383V185.162V190.951V196.73V202.519V208.303V214.077V219.866V225.65V231.429H72.05H77.072H82.095H87.1171H92.1541H97.176H102.198H107.221H112.258H117.281H122.303H127.34H132.365H137.385H142.41H147.447H152.469H157.491H162.513H167.55H172.572H177.595H182.617H187.654H192.676H197.698H202.735H207.757H212.779H217.802H222.839H227.863H232.883H237.908H242.942H247.967H252.987H258.012H263.049H268.071H273.093H278.13H283.153H288.175H293.197H298.234H303.257H308.279H313.302H318.339H323.361H328.384H333.423H338.443H343.468H348.488H353.527H358.547H363.572H368.594V225.65V219.866V214.077V208.303V202.519V196.73V190.951V185.162V179.383V173.599V167.811V162.037V156.243V150.464V144.68V138.896V133.117V127.323V121.544V115.76V109.976V104.197V98.403V92.624V86.85V81.056V75.277V69.483V63.704V57.93V52.136V46.357L363.572 46.356ZM102.199 46.356H107.222V40.567H112.259H117.282V34.788H122.304H127.341V29.009H132.366H137.386V23.215H142.411V17.441H147.448H152.47H157.492H162.514H167.551H172.573H177.596H182.618H187.655H192.677H197.699H202.736H207.758H212.78H217.803H222.84H227.864H232.884H237.909H242.943H247.968H252.988H258.013H263.05H268.072H273.094H278.131H283.154H288.176H293.198V23.215H298.235V29.009H303.258H308.28H313.303V34.788H318.34V40.567H323.362H328.385V46.356H333.424H338.444V52.135H343.469V57.929H348.489V63.703V69.482V75.276V81.055V86.849H343.469H338.444H333.424H328.385H323.362H318.34H313.303H308.28H303.258H298.235H293.198H288.176V92.623V98.402H293.198H298.235H303.258H308.28H313.303H318.34H323.362H328.385H333.424H338.444H343.469H348.489V104.196V109.975V115.759V121.543V127.322V133.116V138.895V144.679V150.463V156.242V162.036V167.81V173.599V179.383V185.162V190.951V196.73V202.519V208.303V214.077H343.469H338.444H333.424H328.385H323.362H318.34H313.303H308.28H303.258H298.235H293.198H288.176H283.154H278.131H273.094H268.072H263.05H258.013H252.988H247.968H242.943H237.909H232.884H227.864H222.84H217.803H212.78H207.758H202.736H197.699H192.677H187.655H182.618H177.596H172.573H167.551H162.514H157.492H152.47H147.448H142.411H137.386H132.366H127.341H122.304H117.282H112.259H107.222H102.199H97.177H92.155H87.118V208.303V202.519V196.73V190.951V185.162V179.383V173.599V167.811V162.037V156.243V150.464V144.68V138.896V133.117V127.323V121.544V115.76V109.976V104.197V98.403V92.624V86.85V81.056V75.277V69.483V63.704V57.93H92.155V52.136H97.177V46.357L102.199 46.356Z" fill="#F3BC13"/>
<path d="M152.172 146.537H147.106V154.241V161.955V169.664H152.172H157.254V161.955V154.241V146.537H152.172Z" fill="#414544"/>
<path d="M162.321 169.664H157.254H152.172H147.106H142.038V161.955H136.957H131.891V154.241V146.537H126.823V138.818V131.11H121.74V138.818V146.537V154.241V161.955H126.823V169.664H131.891V177.377H136.957H142.038H147.106H152.172H157.254H162.321H167.403V169.664H162.321Z" fill="#93979D"/>
<path d="M162.32 115.687H157.254V123.396H162.32V115.687Z" fill="#A6A9AF"/>
<path d="M162.32 107.973H157.254V115.687H162.32V107.973Z" fill="#A6A9AF"/>
<path d="M162.32 100.255H157.254V107.973H162.32V100.255Z" fill="#A6A9AF"/>
<path d="M177.535 131.11H172.469V123.396V115.687V107.973V100.255H167.403H162.321V107.973V115.687V123.396H157.254V131.11H152.172H147.106H142.038V123.396V115.687V107.973V100.255H136.957H131.891H126.823V107.973V115.687V123.396V131.11V138.818V146.537H131.891V154.241V161.955H136.957H142.038V169.664H147.106V161.955V154.241V146.537H152.172H157.254V154.241V161.955V169.664H162.321H167.403H172.469H177.535V161.955V154.241H182.618V146.537V138.818V131.11H177.535Z" fill="#B9BCC3"/>
<path d="M268.842 84.833H263.776H258.695H253.627H248.561H243.479H238.412H233.33H228.264H223.198H218.115H213.047H207.981V92.551H213.047H218.115H223.198H228.264H233.33H238.412H243.479H248.561H253.627H258.695H263.776H268.842H273.91V84.833H268.842Z" fill="#FEE213"/>
<path d="M86.243 84.833H81.162H76.097H71.028H65.948H60.88H55.814H50.731H45.665H40.585H35.516H30.451H25.368V92.551H30.451H35.516H40.585H45.665H50.731H55.814H60.88H65.948H71.028H76.097H81.162H86.243H91.311H96.394V84.833H91.311H86.243Z" fill="#FEE213"/>
<path d="M187.684 69.41H182.618V77.129H187.684V69.41Z" fill="#9B7028"/>
<path d="M182.617 69.41H177.535V77.129H182.617V69.41Z" fill="#AA7C2D"/>
<path d="M177.535 69.41H172.469V77.129H177.535V69.41Z" fill="#AA7C2D"/>
<path d="M172.469 69.41H167.403V77.129H172.469V69.41Z" fill="#AA7C2D"/>
<path d="M273.91 23.142H268.842V30.861H273.91V23.142Z" fill="#FBE4B3"/>
<path d="M233.33 15.439H228.264V23.143H233.33V15.439Z" fill="#BF8730"/>
<path d="M284.059 107.973H278.99H273.91H268.842H263.776H258.695H253.627H248.561H243.479H238.412H233.33H228.264H223.198H218.115H213.047H207.981V115.687V123.396V131.11V138.818V146.537V154.241V161.955V169.664V177.377V185.086V192.809V200.509V208.227H213.047H218.115H223.198H228.264H233.33H238.412H243.479H248.561H253.627H258.695H263.776H268.842H273.91H278.99H284.059H289.124V200.509V192.809V185.086V177.377V169.664V161.955V154.241V146.537V138.818V131.11V123.396V115.687V107.973H284.059Z" fill="#885333"/>
<path d="M182.618 107.973H177.535H172.469V115.687V123.396V131.11H177.535H182.618V138.818V146.537V154.241H177.535V161.955V169.664H172.469H167.403V177.377H162.321H157.254H152.172H147.106H142.038H136.957H131.891V169.664H126.823V161.955H121.74V154.241V146.537V138.818V131.11H126.823V123.396V115.687V107.973H121.74H116.674H111.609H106.526H101.46V115.687V123.396V131.11V138.818V146.537V154.241V161.955V169.664V177.377V185.086V192.809V200.509V208.227H106.526H111.609H116.674H121.74H126.823H131.891H136.957H142.038H147.106H152.172H157.254H162.321H167.403H172.469H177.535H182.618H187.684H192.752V200.509V192.809V185.086V177.377V169.664V161.955V154.241V146.537V138.818V131.11V123.396V115.687V107.973H187.684H182.618Z" fill="#885333"/>
<path d="M76.097 107.973H71.028H65.948H60.88H55.814H50.731H45.665H40.585H35.516H30.451H25.368V115.687V123.396V131.11V138.818V146.537V154.241V161.955V169.664V177.377V185.086V192.809V200.509V208.227H30.451H35.516H40.585H45.665H50.731H55.814H60.88H65.948H71.028H76.097H81.162H86.243V200.509V192.809V185.086V177.377V169.664V161.955V154.241V146.537V138.818V131.11V123.396V115.687V107.973H81.162H76.097Z" fill="#885333"/>
<path d="M213.047 77.129H218.115H223.198H228.264H233.33H238.412H243.479H248.561H253.627H258.695H263.776H268.842H273.91H278.99H284.059V69.41V61.706V53.988H278.99V46.283H273.91H268.842V38.565H263.776H258.695H253.627V30.861H248.561H243.479V23.142H238.412H233.33H228.264V15.439H223.198H218.115H213.047H207.981H202.901H197.833H192.752H187.684H182.618H177.535V23.142V30.861V38.565V46.283V53.988V61.706V69.41H182.618H187.684H192.752H197.833V77.129H202.901H207.981H213.047Z" fill="#885333"/>
<path d="M106.526 77.129H111.609V69.41H116.674H121.74H126.823H131.891H136.957V61.706V53.988V46.283V38.565V30.861V23.142V15.439H131.891H126.823H121.74H116.674H111.609H106.526H101.46H96.394H91.311V23.142H86.243H81.162H76.097V30.861H71.028H65.948V38.565H60.88H55.814H50.731V46.283H45.665H40.585V53.988H35.516V61.706V69.41V77.129H40.585H45.665H50.731H55.814H60.88H65.948H71.028H76.097H81.162H86.243H91.311H96.394H101.46H106.526Z" fill="#885333"/>
<path d="M167.403 61.706V53.988V46.283V38.565V30.861V23.142V15.439H162.321V23.142V30.861V38.565V46.283V53.988V61.706V69.41H167.403V61.706Z" fill="#885333"/>
<path d="M15.234 61.706V69.41V77.129V84.833H20.302V77.129V69.41V61.706V53.988H15.234V61.706Z" fill="#3C2513"/>
<path d="M40.585 38.565H35.516V46.284H40.585V38.565Z" fill="#885333"/>
<path d="M278.99 208.227H273.91H268.842H263.776H258.695H253.627H248.561H243.479H238.412H233.33H228.264H223.198H218.115H213.047H207.981V215.936H213.047H218.115H223.198H228.264H233.33H238.412H243.479H248.561H253.627H258.695H263.776H268.842H273.91H278.99H284.059H289.124V208.227H284.059H278.99Z" fill="#3C2513"/>
<path d="M182.618 208.227H177.535H172.469H167.403H162.321H157.254H152.172H147.106H142.038H136.957H131.891H126.823H121.74H116.674H111.609H106.526H101.46V215.936H106.526H111.609H116.674H121.74H126.823H131.891H136.957H142.038H147.106H152.172H157.254H162.321H167.403H172.469H177.535H182.618H187.684H192.752V208.227H187.684H182.618Z" fill="#3C2513"/>
<path d="M299.273 100.255H294.207H289.124H284.059H278.99H273.91H268.842H263.776H258.695H253.627H248.561H243.479H238.412H233.33H228.264H223.198H218.115H213.047H207.981H202.901H197.833H192.752H187.684H182.618H177.535H172.469V107.973H177.535H182.618H187.684H192.752H197.833H202.901H207.981H213.047H218.115H223.198H228.264H233.33H238.412H243.479H248.561H253.627H258.695H263.776H268.842H273.91H278.99H284.059H289.124H294.207H299.273H304.339V100.255H299.273Z" fill="#3C2513"/>
<path d="M106.526 107.973H111.609H116.674H121.74H126.823V100.255H121.74H116.674H111.609H106.526H101.46H96.394H91.311H86.243H81.162H76.097H71.028H65.948H60.88H55.814H50.731H45.665H40.585H35.516H30.451H25.368H20.302H15.234H10.153H5.08704H0.00402832V107.973H5.08704H10.153H15.234V115.687V123.396V131.11V138.818V146.537V154.241V161.955V169.664V177.377V185.086V192.809V200.509V208.227V215.936H20.302H25.368H30.451H35.516H40.585H45.665H50.731H55.814H60.88H65.948H71.028H76.097H81.162H86.243V208.227H81.162H76.097H71.028H65.948H60.88H55.814H50.731H45.665H40.585H35.516H30.451H25.368V200.509V192.809V185.086V177.377V169.664V161.955V154.241V146.537V138.818V131.11V123.396V115.687V107.973H30.451H35.516H40.585H45.665H50.731H55.814H60.88H65.948H71.028H76.097H81.162H86.243H91.311H96.394H101.46H106.526Z" fill="#3C2513"/>
<path d="M197.833 84.833H202.901H207.981H213.047H218.115H223.198H228.264H233.33H238.412H243.479H248.561H253.627H258.695H263.776H268.842H273.91H278.99H284.059H289.124V77.129V69.41V61.706V53.988H284.059V61.706V69.41V77.129H278.99H273.91H268.842H263.776H258.695H253.627H248.561H243.479H238.412H233.33H228.264H223.198H218.115H213.047H207.981H202.901H197.833V69.41H192.752H187.684V77.129V84.833H192.752H197.833Z" fill="#3C2513"/>
<path d="M30.451 84.833H35.516H40.585H45.665H50.731H55.814H60.88H65.948H71.028H76.097H81.162H86.243H91.311H96.394H101.46H106.526H111.609V77.129H106.526H101.46H96.394H91.311H86.243H81.162H76.097H71.028H65.948H60.88H55.814H50.731H45.665H40.585H35.516V69.41V61.706V53.988H40.585V46.283H43.131H50.731V38.565H43.131H35.516V46.283H32.76H30.451H25.368V53.988H30.451H25.368H20.302V61.706V69.41V77.129V84.833H25.368H30.451Z" fill="#3C2513"/>
<path d="M177.535 69.41V61.706V53.988V46.283V38.565V30.861V23.142V15.439H169.935H162.321V23.142V30.861V38.565V46.283V53.988V61.706V69.41H169.935H177.535Z" fill="#3C2513"/>
<path d="M60.88 38.565H65.948V30.861H71.028H76.097V23.142H71.028H65.948H60.88V30.861H55.814H50.731V38.565H55.814H60.88Z" fill="#3C2513"/>
<path d="M86.243 23.142H91.311V15.439H86.243H81.162H76.097V23.142H81.162H86.243Z" fill="#3C2513"/>
<path d="M248.561 7.72003H243.479V15.439H248.561V7.72003Z" fill="#F9D06C"/>
<path d="M60.88 7.72003H55.814V15.439H60.88V7.72003Z" fill="#FBE6B8"/>
<path d="M294.207 107.973H289.124V115.687V123.396V131.11V138.818V146.537V154.241V161.955V169.664V177.377V185.086V192.809V200.509V208.227V215.936H284.059H278.99H273.91H268.842H263.776H258.695H253.627H248.561H243.479H238.412H233.33H228.264H223.198H218.115H213.047H207.981V208.227V200.509V192.809V185.086V177.377V169.664V161.955V154.241V146.537V138.818V131.11V123.396V115.687V107.973H202.901H197.833H192.752V115.687V123.396V131.11V138.818V146.537V154.241V161.955V169.664V177.377V185.086V192.809V200.509V208.227V215.936H187.684H182.618H177.535H172.469H167.403H162.321H157.254H152.172H147.106H142.038H136.957H131.891H126.823H121.74H116.674H111.609H106.526H101.46V208.227V200.509V192.809V185.086V177.377V169.664V161.955V154.241V146.537V138.818V131.11V123.396V115.687V107.973H96.394H91.311H86.243V115.687V123.396V131.11V138.818V146.537V154.241V161.955V169.664V177.377V185.086V192.809V200.509V208.227V215.936H81.162H76.097H71.028H65.948H60.88H55.814H50.731H45.665H40.585H35.516H30.451H25.368H20.302H15.234V208.227V200.509V192.809V185.086V177.377V169.664V161.955V154.241V146.537V138.818V131.11V123.396V115.687V107.973H10.153H5.08704H0.00402832V115.687V123.396V131.11V138.818V146.537V154.241V161.955V169.664V177.377V185.086V192.809V200.509V208.227V215.936V223.654V231.354H5.08704H10.153H15.234H20.302H25.368H30.451H35.516H40.585H45.665H50.731H55.814H60.88H65.948H71.028H76.097H81.162H86.243H91.311H96.394H101.46H106.526H111.609H116.674H121.74H126.823H131.891H136.957H142.038H147.106H152.172H157.254H162.321H167.403H172.469H177.535H182.618H187.684H192.752H197.833H202.901H207.981H213.047H218.115H223.198H228.264H233.33H238.412H243.479H248.561H253.627H258.695H263.776H268.842H273.91H278.99H284.059H289.124H294.207H299.273H304.339V223.654V215.936V208.227V200.509V192.809V185.086V177.377V169.664V161.955V154.241V146.537V138.818V131.11V123.396V115.687V107.973H299.273H294.207Z" fill="#F5BC14"/>
<path d="M299.273 46.283H294.207V38.564H289.124H284.058V30.86H278.99H273.909H268.841V23.1411H263.775H258.695V15.437H253.627H248.561H243.478V7.71802H238.412H233.329V0H228.263H223.197H218.114H213.046H207.98H202.9H197.832H192.751H187.683H182.617H177.534H172.468H167.402H162.319H157.253H152.171H147.105H142.037H136.957H131.891H126.822H121.74H116.674H111.608H106.525H101.459H96.3931H91.3101H86.2421H81.161H76.095H71.026V7.71802H65.946H60.8781V15.437H55.812H50.729H45.663V23.1411H40.583H35.514V30.86H30.448H25.365H20.2991V38.564H15.23H10.149V46.283H5.08301H0V53.987V61.705V69.409V77.1281V84.832V92.551V100.255H5.08301H10.149H15.23H20.2991H25.365H30.448H35.514H40.583H45.663H50.729H55.812H60.8781H65.946H71.026H76.095H81.161H86.2421H91.3101H96.3931H101.459H106.525H111.608H116.674H121.74H126.822H131.891H136.957H142.037V107.974V115.688V123.397V131.111H147.105H152.171H157.253V123.397V115.688V107.974V100.255H162.319H167.402H172.468H177.534H182.617H187.683H192.751H197.832H202.9H207.98H213.046H218.114H223.197H228.263H233.329H238.412H243.478H248.561H253.627H258.695H263.775H268.841H273.909H278.99H284.058H289.124H294.207H299.273H304.339V92.551V84.832V77.1281V69.409V61.705V53.987V46.283H299.273ZM91.311 92.551H86.243H81.162H76.0961H71.027H65.947H60.879H55.813H50.73H45.6641H40.584H35.515H30.449H25.366V84.832H20.3H15.231V77.1281V69.409V61.705V53.987H20.3H25.366V46.283H30.449H35.515V38.564H40.584H45.6641H50.73V30.86H55.813H60.879V23.1411H65.947H71.027H76.0961V15.437H81.162H86.243H91.311H96.394H101.46H106.526H111.609H116.675H121.741H126.823H131.892H136.958V23.1411V30.86V38.564V46.283V53.987V61.705V69.409H131.892H126.823H121.741H116.675H111.609V77.1281V84.832H106.526H101.46H96.394V92.551H91.311ZM268.842 92.551H263.776H258.696H253.628H248.562H243.479H238.413H233.33H228.264H223.198H218.115H213.047H207.981V84.832H202.901H197.833H192.752H187.684V77.1281H182.618H177.535H172.469H167.403V69.409H162.32V61.705V53.987V46.283V38.564V30.86V23.1411V15.437H167.403H172.469H177.535H182.618H187.684H192.752H197.833H202.901H207.981H213.047H218.115H223.198H228.264H233.33V23.1411H238.413H243.479V30.86H248.562H253.628V38.564H258.696H263.776H268.842V46.283H273.91H278.991V53.987H284.059H289.125V61.705V69.409V77.1281V84.832H284.059H278.991H273.91V92.551H268.842Z" fill="#F5BC14"/>
<path d="M200.47 168.837V163.768V158.695V153.617V148.554V143.48V138.403V133.339V128.256V123.188V118.12V113.042V107.973H192.752V113.042V118.12V123.188V128.256V133.339V138.403V143.48V148.554V153.617V158.695V163.768V168.837V173.919H200.47V168.837Z" fill="#FEE213"/>
<path d="M93.947 168.837V163.768V158.695V153.617V148.554V143.48V138.403V133.339V128.256V123.188V118.12V113.042V107.973H86.243V113.042V118.12V123.188V128.256V133.339V138.403V143.48V148.554V153.617V158.695V163.768V168.837V173.919H93.947V168.837Z" fill="#FEE213"/>
<path d="M348.488 95.559H289.124V100.255H348.488V95.559Z" fill="#F3BC13"/>
</svg>
