<svg width="572" height="773" viewBox="0 0 572 773" fill="none" xmlns="http://www.w3.org/2000/svg">
<path d="M305.038 482.949H295.53H286.022H276.514V502.24V521.531V540.828V560.124V579.42V598.712V618.003V637.3V656.596V675.887V695.183V714.475V733.771V753.067H286.022H295.53H305.038H314.555V733.771V714.475V695.183V675.887V656.596V637.3V618.003V598.712V579.42V560.124V540.828V521.531V502.24V482.949H305.038Z" fill="#7F5137"/>
<path d="M228.965 482.949H219.457V502.24H228.965V482.949Z" fill="#002A17"/>
<path d="M181.416 482.949H171.908V502.24H181.416V482.949Z" fill="#003F24"/>
<path d="M133.867 425.06H124.359V444.356H133.867V425.06Z" fill="#003D22"/>
<path d="M495.234 405.769H485.726V425.06H495.234V405.769Z" fill="#252826"/>
<path d="M523.758 386.477H514.25V405.768H523.758V386.477Z" fill="#212122"/>
<path d="M257.499 251.413H247.981V270.709H257.499V251.413Z" fill="#D53E5B"/>
<path d="M29.271 212.825H19.7531V232.116H29.271V212.825Z" fill="#242826"/>
<path d="M561.799 193.534H552.291V212.825H561.799V193.534Z" fill="#353D3D"/>
<path d="M514.25 174.237H504.742V193.533H514.25V174.237Z" fill="#4D8861"/>
<path d="M86.328 174.237H76.8101V193.533H86.328V174.237Z" fill="#567761"/>
<path d="M57.7939 154.941H48.286V174.237H57.7939V154.941Z" fill="#343B3C"/>
<path d="M466.701 405.769H457.193H447.685H438.177H428.669H419.152H409.644V386.477H400.136H390.628V367.181H381.12V347.885H371.612V367.181V386.477H362.095H352.587V405.769H343.079H333.571H324.063H314.555H305.038H295.53H286.022H276.514V386.477H267.006H257.498V367.181H247.981V347.885H238.473H228.965H219.457H209.949H200.441H190.924H181.416H171.908H162.4H152.892V328.588H143.385H133.867V309.297H124.359H114.851V290.005V270.709V251.413H105.343H95.835H86.328V232.117H76.8101H67.302H57.7939V212.825H48.286V193.534H38.778V212.825H29.271V232.117H19.7531V251.413V270.709V290.005H29.271V309.297H38.778H48.286H57.7939V328.588H48.286H38.778V347.885V367.181V386.477H48.286V405.769H57.7939H67.302V425.06H76.8101H86.328H95.835H105.343H114.851H124.359H133.867V444.356V463.652H143.385V482.944H152.892H162.4H171.908H181.416V502.24H190.924H200.441H209.949H219.457V482.944H228.965H238.473H247.981V463.652H257.498H267.006H276.514H286.022H295.53H305.038H314.555H324.063H333.571V482.944H343.079H352.587H362.095H371.612H381.12H390.628H400.136H409.644H419.152V463.652H428.669H438.177V444.356H447.685V425.06H457.193H466.701H476.209H485.726V405.769H476.209H466.701Z" fill="#529351"/>
<path d="M295.53 347.885H286.022V367.181H295.53H305.038H314.555V347.885H305.038H295.53Z" fill="#529351"/>
<path d="M133.867 251.413V232.117H124.359H114.851V251.413H124.359H133.867Z" fill="#529351"/>
<path d="M371.612 232.117H381.12H390.628H400.136H409.644H419.152H428.669H438.177H447.685H457.193V212.825H447.685H438.177H428.669H419.152H409.644H400.136H390.628H381.12H371.612H362.095V232.117H371.612Z" fill="#529351"/>
<path d="M200.441 174.237H209.949H219.457H228.965H238.473H247.981H257.498H267.006H276.514H286.022H295.53V154.941H286.022H276.514H267.006H257.498H247.981H238.473H228.965H219.457H209.949H200.441H190.924V174.237H200.441Z" fill="#529351"/>
<path d="M466.701 309.297H457.193H447.685V328.588V347.885H457.193H466.701H476.209V328.588V309.297H466.701Z" fill="#D53E5B"/>
<path d="M162.4 309.297H152.892V328.588V347.885H162.4H171.908H181.416V328.588V309.297H171.908H162.4Z" fill="#D53E5B"/>
<path d="M257.498 232.117H247.981V251.413H257.498V270.709H267.006H276.514V251.413V232.117H267.006H257.498Z" fill="#D53E5B"/>
<path d="M362.095 116.354H352.587V135.645H362.095H371.612H381.12V116.354H371.612H362.095Z" fill="#D53E5B"/>
<path d="M76.8101 116.354H67.302V135.645H76.8101V116.354Z" fill="#283530"/>
<path d="M400.136 77.766H390.628V97.062H400.136V77.766Z" fill="#548362"/>
<path d="M114.851 77.766H105.343V97.062H114.851V77.766Z" fill="#4F8762"/>
<path d="M152.893 58.47H143.385V77.766H152.893V58.47Z" fill="#2B3333"/>
<path d="M542.783 212.825V193.534H533.266H523.758H514.25H504.742V174.238V154.942V135.646V116.355H495.234V97.063H485.726H476.208V77.767H466.7H457.192H447.684H438.176H428.668H419.15H409.642H400.134V97.063H390.626V77.767H400.134V58.47H390.626V39.174H381.118H371.61V19.883H362.092H352.584H343.076H333.568H324.06H314.552H305.034H295.526H286.018V39.174H276.51V19.883H267.002H257.494H247.976H238.468H228.96H219.452V39.174H209.944H200.436H190.919V58.47H181.411V77.766V97.062H171.903H162.395V77.766H152.887H143.379H133.861H124.353H114.845V97.062H105.337H95.829H86.321V116.354H76.803V135.645H67.295V154.941V174.237H76.803H86.321V193.533H76.803H67.295H57.787H48.2791V212.824H57.787V232.115H67.295H76.803H86.321V251.411H95.829H105.337H114.845V232.115H124.353H133.861V251.411H124.353H114.845V270.707V290.003V309.294H124.353H133.861V328.585H143.379H152.887V309.294H162.395H171.903H181.411V328.585V347.881H190.919H200.436H209.944H219.452H228.96H238.468H247.976V367.177H257.494V386.473H267.002H276.51V405.764H286.018H295.526H305.034H314.552H324.06H333.568H343.076H352.584V386.473H362.092H371.61V367.177V347.881H381.118V367.177H390.626V386.473H400.134H409.642V405.764H419.15H428.668H438.176H447.684H457.192H466.7H476.208H485.726H495.234H504.742H514.25V386.473H523.758H533.266V367.177V347.881V328.585H523.758V309.294H533.266V290.003H542.783H552.291V270.707V251.411V232.115V212.824H542.783V212.825ZM362.095 212.825H371.613H381.121H390.629H400.137H409.645H419.153H428.671H438.179H447.687H457.195V232.116H447.687H438.179H428.671H419.153H409.645H400.137H390.629H381.121H371.613H362.095V212.825ZM247.981 251.413V232.117H257.499H267.007H276.515V251.413V270.709H267.007H257.499H247.981V251.413ZM209.949 154.941H219.457H228.965H238.473H247.981H257.499H267.007H276.515H286.023H295.531V174.237H286.023H276.515H267.007H257.499H247.981H238.473H228.965H219.457H209.949H200.441H190.924V154.941H200.441H209.949ZM447.685 328.588V309.297H457.193H466.701H476.209V328.588V347.884H466.701H457.193H447.685V328.588ZM381.12 135.645H371.612H362.094H352.586V116.354H362.094H371.612H381.12V135.645ZM286.022 347.885H295.53H305.038H314.556V367.181H305.038H295.53H286.022V347.885Z" fill="#98C261"/>
<path d="M200.441 502.24H190.924H181.416V521.531H190.924H200.441H209.949H219.457V502.24H209.949H200.441Z" fill="black"/>
<path d="M571.307 270.709V251.413V232.117V212.825H561.799H552.291V232.117V251.413V270.709H561.799V251.413V232.117V251.413V270.709H552.291V290.005H561.799H571.307V270.709Z" fill="black"/>
<path d="M362.095 0.591003H352.587H343.079H333.571H324.063H314.555H305.038H295.53H286.022V19.882H295.53H305.038H314.555H324.063H333.571H343.079H352.587H362.095H371.612V0.591003H362.095Z" fill="black"/>
<path d="M400.136 482.944H390.628H381.12H371.612H362.094H352.586H343.078H333.57V463.653H324.062H314.554H305.036H295.528H286.02H276.512H267.004H257.496H247.978V482.944H257.496V502.24V521.531V540.827V560.123V579.419V598.71V618.002V637.298V656.594V675.885V695.181V714.473V733.769V753.065V772.357H267.004H276.512H286.02H295.528H305.036H314.554H324.062H333.57V753.065V733.769V714.473V695.181V675.885V656.594V637.3V618.004V598.712V579.421V560.125V540.829V521.533V502.242H343.078H352.586H362.094H371.612H381.12H390.628H400.136H409.644H419.152V482.946H409.644H400.136V482.944ZM314.555 502.24V521.531V540.827V560.123V579.419V598.71V618.002V637.298V656.594V675.885V695.181V714.473V733.769V753.065H305.037H295.529H286.021H276.513V733.769V714.473V695.181V675.885V656.594V637.3V618.004V598.712V579.421V560.125V540.829V521.533V502.242V482.946H286.021H295.529H305.037H314.555V502.24Z" fill="black"/>
<path d="M228.965 482.944V502.24H238.473H247.981V482.944H238.473H228.965Z" fill="black"/>
<path d="M152.892 482.944V482.949H143.385V502.24H152.892H162.4H171.908V482.944H162.4H152.892Z" fill="black"/>
<path d="M419.152 463.652V482.944H428.669H438.177V463.652H428.669H419.152Z" fill="black"/>
<path d="M133.867 444.356H124.359V425.06H114.851H105.343H95.835H86.328H76.8101H67.302V405.769H57.7939H48.286V425.06H57.7939H67.302V444.356H76.8101H86.328H95.835H105.343H114.851V463.652H124.359V482.944H133.867H143.385V463.652H133.867V444.356Z" fill="black"/>
<path d="M447.685 425.06V444.356H438.177V463.652H447.685H457.193V444.356H466.701V425.06H457.193H447.685Z" fill="black"/>
<path d="M495.234 405.769V425.06H504.742H514.25V405.769H504.742H495.234Z" fill="black"/>
<path d="M38.778 386.477V367.181V347.885V328.588H48.286H57.7939V309.297H48.286H38.778H29.271V328.588H19.7531V347.885V367.181V386.477H29.271V405.769H38.778H48.286V386.477H38.778Z" fill="black"/>
<path d="M533.266 290.005V309.297H523.757V328.588H533.266V347.885V367.181V386.477H523.757V405.769H533.266H542.783V386.477H552.291V367.181V347.885V328.588H542.783V309.297H552.291V290.005H542.783H533.266Z" fill="black"/>
<path d="M19.7531 290.005V270.709V251.413V232.117V212.825H10.245V232.117H0.737061V251.413V270.709V290.005H10.245V309.297H19.7531H29.271V290.005H19.7531Z" fill="black"/>
<path d="M552.291 193.534H542.783V212.825H552.291V193.534Z" fill="black"/>
<path d="M38.778 212.825V193.534H48.286H57.7939H67.302H76.8101V174.237H67.302V154.941V135.645V116.354H57.7939V135.645H48.286V154.941H57.7939V174.237H48.286H38.778V193.534H29.271H19.7531V212.825H29.271H38.778Z" fill="black"/>
<path d="M533.266 174.237H523.757H514.25V193.534H523.757H533.266H542.783V174.237H533.266Z" fill="black"/>
<path d="M523.757 154.941V135.645H514.25V116.354V97.062H504.742V77.766H495.234H485.726H476.209V97.062H485.726H495.234V116.354H504.742V135.645V154.941V174.237H514.25V154.941H523.757Z" fill="black"/>
<path d="M86.328 116.354V97.062H76.8101H67.302V116.354H76.8101H86.328Z" fill="black"/>
<path d="M105.343 97.062V77.766H95.835H86.328V97.062H95.835H105.343Z" fill="black"/>
<path d="M466.701 58.47H457.193H447.685H438.177H428.669H419.152H409.644V39.173H400.136V19.882H390.628H381.12H371.612V39.173H381.12H390.628V58.47H400.136V77.766H409.644H419.152H428.669H438.177H447.685H457.193H466.701H476.209V58.47H466.701Z" fill="black"/>
<path d="M124.359 58.47H114.851V77.766H124.359H133.867H143.385V58.47H133.867H124.359Z" fill="black"/>
<path d="M286.022 19.882H276.514V39.173H286.022V19.882Z" fill="black"/>
<path d="M200.441 19.882H190.924H181.416V39.173H171.908V58.47H162.4V77.766V97.062H171.908H181.416V77.766V58.47H190.924V39.173H200.441H209.949H219.457V19.882H209.949H200.441Z" fill="black"/>
<path d="M247.981 19.882H257.498H267.006V0.591003H257.498H247.981H238.473H228.965V19.882H238.473H247.981Z" fill="black"/>
</svg>
